<svg width="42" height="39" viewBox="0 0 42 39" fill="none" xmlns="http://www.w3.org/2000/svg">
<g id="Group">
<path id="Vector" d="M0.811919 18.7527C0.811919 14.068 0.811919 9.48092 0.811919 4.79625C0.811919 3.0395 1.59265 2.25863 3.34923 2.25863C3.5444 2.25863 3.73955 2.25863 3.93473 2.25863C4.52025 2.35623 5.00818 2.25858 5.20335 1.4778C5.39853 0.697024 6.27681 0.209229 7.1551 0.209229C8.03339 0.209229 8.81411 0.794812 9.00929 1.67319C9.10687 2.25877 9.3996 2.35632 9.88754 2.35632C10.0827 2.35632 10.3755 2.35632 10.5707 2.35632C11.2538 2.35632 11.9369 2.55137 12.1321 1.4778C12.3273 0.599427 13.2056 0.306683 14.0838 0.306683C14.9621 0.40428 15.6452 0.794812 15.8404 1.67319C15.938 2.25877 16.3283 2.35632 16.8163 2.35632C17.109 2.35632 17.3042 2.35632 17.597 2.35632C18.2801 2.45392 18.768 2.35618 19.0608 1.4778C19.256 0.697024 20.2318 0.209086 21.1101 0.306683C21.9884 0.40428 22.6715 0.989864 22.8667 1.77064C22.9643 2.25863 23.1594 2.35632 23.5498 2.35632C23.8425 2.35632 24.1353 2.35632 24.4281 2.35632C25.1112 2.35632 25.7943 2.45378 25.9895 1.4778C26.1846 0.697024 27.1605 0.209086 28.0388 0.306683C28.9171 0.40428 29.6002 0.989959 29.7954 1.86833C29.893 2.35632 30.0882 2.35632 30.4785 2.35632C30.8689 2.35632 31.3568 2.35632 31.7471 2.35632C33.211 2.35632 34.0893 3.2346 34.0893 4.69856C34.0893 8.40726 34.0893 12.2135 34.0893 15.9222C34.0893 16.4102 34.1868 16.6054 34.6748 16.8982C39.7493 19.5333 42.189 25.1941 40.53 30.6595C38.9686 35.9298 33.7965 39.4433 28.234 38.9553C26.3799 38.7601 24.7209 38.2722 23.1595 37.2962C22.7691 37.0034 22.2812 36.9057 21.7932 36.9057C16.1331 36.9057 10.5707 36.9057 4.9106 36.9057C3.64197 36.9057 3.54435 36.808 3.54435 35.6368C3.54435 34.1729 3.54435 34.1729 2.08054 34.1729C0.811907 34.1729 0.714355 34.0754 0.714355 32.8066C0.811943 28.122 0.811919 23.4374 0.811919 18.7527ZM18.768 32.7089C13.9862 22.6564 23.257 12.8969 32.723 15.8248C32.723 13.8728 32.723 11.8232 32.723 9.87126C32.723 9.28568 32.6254 9.09044 32.0399 9.09044C22.3787 9.09044 12.7176 9.09044 3.05642 9.09044C2.47089 9.09044 2.27573 9.18799 2.27573 9.77357C2.27573 17.0934 2.27573 24.5109 2.27573 31.8306C2.27573 32.4162 2.37333 32.6115 2.95885 32.6115C8.0334 32.6115 13.0104 32.6115 18.0849 32.6115C18.2801 32.7091 18.4753 32.7089 18.768 32.7089ZM17.4018 7.82163C17.6945 7.82163 17.8897 7.82163 18.1825 7.82163C22.7691 7.82163 27.3557 7.82163 31.9423 7.82163C32.5279 7.82163 32.723 7.72408 32.723 7.13849C32.6254 6.35771 32.723 5.47934 32.723 4.69856C32.723 3.91778 32.4303 3.62513 31.7471 3.62513C31.552 3.62513 31.3568 3.62513 31.1616 3.62513C30.0882 3.62513 30.0882 3.62499 29.9906 4.69856C29.9906 5.18655 29.893 5.67453 29.2099 5.67453C28.3316 5.67453 27.4533 5.67453 26.575 5.67453C26.0871 5.67453 25.8919 5.38169 25.8919 4.89371C25.7943 3.62494 25.7943 3.62513 24.4281 3.62513C24.3305 3.62513 24.2329 3.62513 24.1353 3.62513C23.3546 3.52754 23.0619 3.82033 23.1595 4.60111C23.257 5.47948 23.0619 5.67453 22.1836 5.67453C21.4029 5.67453 20.6222 5.67453 19.9391 5.67453C19.3536 5.67453 19.1583 5.38169 19.1583 4.89371C19.0608 3.62494 19.0608 3.62513 17.7922 3.62513C17.597 3.62513 17.4994 3.62513 17.3042 3.62513C16.5235 3.42994 16.3283 3.82033 16.3283 4.60111C16.4259 5.57708 16.2307 5.67453 15.2548 5.67453C14.5717 5.67453 13.7911 5.67453 13.108 5.67453C12.5224 5.67453 12.3272 5.47929 12.2297 4.89371C12.1321 3.62494 12.1321 3.62513 10.7658 3.62513C10.6683 3.62513 10.5707 3.62513 10.4731 3.62513C9.49722 3.62513 9.3996 3.62499 9.3996 4.69856C9.3996 5.38174 9.10684 5.77223 8.42373 5.77223C7.64303 5.77223 6.86234 5.77223 6.17923 5.77223C5.5937 5.77223 5.39856 5.57698 5.30098 4.9914C5.20339 3.72264 5.20339 3.72259 3.83716 3.72259C3.73958 3.72259 3.54438 3.72259 3.44679 3.72259C2.86127 3.72259 2.56848 4.01552 2.56848 4.60111C2.56848 5.38188 2.66607 6.26026 2.56848 7.04104C2.47089 7.82182 2.76368 7.91932 3.44679 7.91932C7.83822 7.82172 12.62 7.82163 17.4018 7.82163ZM29.2099 37.5888C34.9676 37.5888 39.5541 33.0019 39.5541 27.2436C39.5541 21.4854 34.9676 16.8982 29.2099 16.8982C23.4522 16.8982 18.768 21.4852 18.8656 27.3411C18.8656 33.0017 23.4522 37.5888 29.2099 37.5888ZM20.7198 35.5394C20.2318 34.173 19.256 34.0753 18.0849 34.1729C13.9862 34.2705 9.88758 34.1729 5.78891 34.1729C5.20339 34.1729 5.00817 34.2705 5.00817 34.9537C5.00817 35.6369 5.30098 35.6368 5.78891 35.6368C10.5707 35.6368 15.2549 35.6368 20.0367 35.6368C20.2318 35.5392 20.427 35.5394 20.7198 35.5394ZM14.6693 3.2346C14.6693 2.94181 14.6693 2.64911 14.6693 2.35632C14.6693 1.96593 14.4742 1.67319 13.9862 1.67319C13.4983 1.67319 13.3031 1.96593 13.3031 2.35632C13.3031 2.84431 13.3031 3.2346 13.3031 3.72259C13.2055 4.30817 13.4983 4.50341 14.0838 4.50341C14.6694 4.50341 14.7669 4.30827 14.7669 3.82028C14.6693 3.52749 14.6693 3.3322 14.6693 3.2346ZM27.1605 3.13715C27.1605 3.42994 27.1605 3.72264 27.1605 4.01543C27.1605 4.30822 27.3557 4.40572 27.5509 4.40572C27.8437 4.30812 28.4291 4.6987 28.4291 4.11312C28.5267 3.52754 28.4291 2.84435 28.4291 2.16117C28.4291 1.77078 28.1364 1.57559 27.7461 1.67319C27.3557 1.67319 27.1605 1.96593 27.063 2.35632C27.1605 2.55152 27.1605 2.84435 27.1605 3.13715ZM7.74066 3.2346C7.74066 2.94181 7.74066 2.74657 7.74066 2.45378C7.74066 1.96579 7.54548 1.67319 7.05754 1.67319C6.5696 1.67319 6.37441 1.96579 6.37441 2.45378C6.37441 2.84416 6.37441 3.3322 6.37441 3.72259C6.27683 4.30817 6.56958 4.40582 7.1551 4.50341C7.74063 4.50341 7.83822 4.30827 7.83822 3.82028C7.74064 3.52749 7.74066 3.3322 7.74066 3.2346ZM21.598 3.2346C21.598 2.94181 21.598 2.64911 21.598 2.35632C21.598 1.96593 21.4029 1.67319 20.915 1.67319C20.427 1.67319 20.2318 1.96593 20.2318 2.35632C20.2318 2.84431 20.2318 3.2346 20.2318 3.72259C20.1343 4.30817 20.427 4.40572 20.915 4.40572C21.5005 4.40572 21.6956 4.21057 21.598 3.72259C21.598 3.52739 21.598 3.3322 21.598 3.2346Z" fill="#050505"/>
<path id="Vector_2" d="M18.7681 32.7088C18.4753 32.7088 18.2801 32.7088 18.0849 32.7088C13.0104 32.7088 8.03343 32.7088 2.95888 32.7088C2.37336 32.7088 2.27576 32.5138 2.27576 31.9282C2.27576 24.6084 2.27576 17.1909 2.27576 9.87112C2.27576 9.28554 2.47092 9.18799 3.05644 9.18799C12.7176 9.18799 22.3788 9.18799 32.0399 9.18799C32.6255 9.18799 32.8206 9.38323 32.723 9.96881C32.723 11.9208 32.723 13.9702 32.723 15.9221C23.2571 12.8966 13.9863 22.6563 18.7681 32.7088ZM16.0356 19.6308C16.0356 18.4597 15.0597 17.4836 13.9862 17.5812C12.9128 17.5812 11.9369 18.4597 11.9369 19.6308C11.9369 20.802 12.8152 21.7779 13.9862 21.7779C15.0597 21.6803 16.0356 20.802 16.0356 19.6308ZM9.10688 25.0964C9.10688 23.9252 8.13099 23.0468 6.95994 23.0468C5.78889 23.0468 4.91063 23.9252 4.91063 25.0964C4.91063 26.2676 5.78889 27.1458 6.95994 27.1458C8.22858 27.2434 9.10688 26.2676 9.10688 25.0964ZM16.0356 14.0679C16.0356 12.8967 15.0597 12.0182 13.8887 12.0182C12.7176 12.0182 11.8393 12.9941 11.8393 14.1653C11.8393 15.3365 12.7176 16.2149 13.8887 16.2149C15.1573 16.1173 16.0356 15.239 16.0356 14.0679ZM16.0356 25.0964C16.0356 23.9252 15.0597 23.0468 13.8887 23.0468C12.7176 23.0468 11.8393 23.9252 11.8393 25.0964C11.8393 26.2676 12.7176 27.1458 13.8887 27.1458C15.1573 27.2434 16.0356 26.2676 16.0356 25.0964ZM22.9643 14.0679C22.9643 12.8967 22.086 12.0182 20.915 12.0182C19.7439 12.0182 18.8656 12.8967 18.8656 14.0679C18.8656 15.239 19.7439 16.1173 20.915 16.1173C21.9885 16.1173 22.9643 15.239 22.9643 14.0679ZM9.10688 19.6308C9.10688 18.4597 8.13103 17.4838 7.05757 17.4838C5.9841 17.4838 5.00819 18.362 5.00819 19.5332C5.00819 20.7043 5.88652 21.6805 7.05757 21.6805C8.13103 21.6805 9.10688 20.802 9.10688 19.6308ZM7.05757 12.0182C5.88652 12.0182 5.00819 12.9941 5.00819 14.1653C5.00819 15.3365 5.88652 16.2149 7.05757 16.2149C8.22861 16.2149 9.10688 15.3365 9.10688 14.1653C9.10688 12.8965 8.13103 12.0182 7.05757 12.0182Z" fill="#E8E8E8"/>
<path id="Vector_3" d="M17.4018 7.82147C12.62 7.82147 7.83825 7.82147 3.05646 7.82147C2.37335 7.82147 2.08062 7.72397 2.17821 6.94319C2.2758 6.16241 2.17821 5.28403 2.17821 4.50326C2.17821 3.91767 2.47094 3.62498 3.05646 3.62498C3.15405 3.62498 3.34925 3.62498 3.44684 3.62498C4.81306 3.62498 4.81306 3.62478 4.91065 4.89355C5.00823 5.47913 5.20343 5.67438 5.78896 5.67438C6.56966 5.67438 7.35034 5.67438 8.03346 5.67438C8.81416 5.67438 9.00933 5.38173 9.00933 4.60095C9.00933 3.52738 9.00931 3.52728 10.0828 3.52728C10.1804 3.52728 10.2779 3.52728 10.3755 3.52728C11.7417 3.52728 11.7417 3.52733 11.8393 4.79609C11.8393 5.38168 12.1321 5.57692 12.7176 5.57692C13.4008 5.57692 14.1815 5.57692 14.8646 5.57692C15.8405 5.57692 16.0356 5.47923 15.938 4.50326C15.8404 3.72248 16.1332 3.33209 16.9139 3.52728C17.1091 3.52728 17.2067 3.52728 17.4018 3.52728C18.6705 3.52728 18.6705 3.52733 18.7681 4.79609C18.7681 5.38168 19.0608 5.57692 19.5488 5.57692C20.3295 5.57692 21.1101 5.57692 21.7933 5.57692C22.6715 5.57692 22.8667 5.38163 22.7691 4.50326C22.6715 3.62488 22.9643 3.33209 23.745 3.52728C23.8426 3.52728 23.9402 3.52728 24.0378 3.52728C25.404 3.52728 25.404 3.52733 25.5016 4.79609C25.5016 5.28408 25.6968 5.57692 26.1847 5.57692C27.063 5.57692 27.9413 5.57692 28.8196 5.57692C29.5027 5.57692 29.6003 5.18653 29.6003 4.60095C29.6003 3.52738 29.6003 3.52728 30.7713 3.52728C30.9665 3.52728 31.1616 3.52728 31.3568 3.52728C32.1375 3.52728 32.4303 3.82017 32.3327 4.60095C32.3327 5.38173 32.2351 6.2601 32.3327 7.04088C32.3327 7.62646 32.1375 7.72401 31.552 7.72401C26.9654 7.72401 22.3788 7.72401 17.7922 7.72401C17.9874 7.82161 17.6946 7.82147 17.4018 7.82147Z" fill="#D7625D"/>
<path id="Vector_4" d="M29.2099 37.5887C23.4522 37.5887 18.8656 33.0018 18.8656 27.2435C18.8656 21.4853 23.4522 16.8007 29.2099 16.8007C34.9676 16.8007 39.5541 21.4852 39.5541 27.1458C39.5541 33.0017 34.9676 37.5887 29.2099 37.5887ZM29.2099 36.2224C34.1869 36.2224 38.1879 32.221 38.1879 27.2435C38.1879 22.2661 34.1869 18.2646 29.2099 18.2646C24.2329 18.2646 20.2318 22.2661 20.2318 27.2435C20.2318 32.221 24.2329 36.2224 29.2099 36.2224Z" fill="#5A959F"/>
<path id="Vector_5" d="M20.7198 35.5393C20.5246 35.5393 20.2318 35.5393 20.0367 35.5393C15.2549 35.5393 10.5707 35.5393 5.78893 35.5393C5.30099 35.5393 5.00818 35.5393 5.00818 34.8561C5.00818 34.173 5.30099 34.0753 5.78893 34.0753C9.8876 34.0753 13.9862 34.0753 18.0849 34.0753C19.256 34.0753 20.2319 34.1729 20.7198 35.5393Z" fill="#D3D3D3"/>
<path id="Vector_6" d="M14.6694 3.23455C14.6694 3.42974 14.6694 3.52734 14.6694 3.72253C14.767 4.21052 14.5718 4.40566 13.9863 4.40566C13.4007 4.40566 13.2056 4.21066 13.2056 3.62508C13.3032 3.23469 13.2056 2.74656 13.2056 2.25857C13.2056 1.86818 13.4008 1.57544 13.8887 1.57544C14.3766 1.57544 14.5718 1.86818 14.5718 2.25857C14.6694 2.64896 14.6694 2.94175 14.6694 3.23455Z" fill="#B9B9B9"/>
<path id="Vector_7" d="M27.1605 3.13709C27.1605 2.8443 27.1605 2.55136 27.1605 2.25857C27.1605 1.86818 27.4533 1.67304 27.8436 1.57544C28.234 1.57544 28.4292 1.77063 28.5268 2.06343C28.6244 2.74661 28.6244 3.33219 28.5268 4.01537C28.4292 4.50336 27.9412 4.21061 27.6485 4.30821C27.3557 4.40581 27.1606 4.21047 27.2581 3.91768C27.1606 3.72248 27.1605 3.42988 27.1605 3.13709Z" fill="#B9B9B9"/>
<path id="Vector_8" d="M7.74067 3.23455C7.74067 3.42974 7.74067 3.52734 7.74067 3.72253C7.83825 4.21052 7.64307 4.40566 7.05754 4.40566C6.47202 4.40566 6.27686 4.30826 6.27686 3.62508C6.37444 3.23469 6.27686 2.74665 6.27686 2.35627C6.27686 1.96588 6.47198 1.57544 6.95992 1.57544C7.44786 1.57544 7.64304 1.86828 7.64304 2.35627C7.74063 2.64906 7.74067 2.94175 7.74067 3.23455Z" fill="#BABABA"/>
<path id="Vector_9" d="M21.598 3.23451C21.598 3.4297 21.598 3.5273 21.598 3.7225C21.6956 4.21048 21.5005 4.40563 20.915 4.40563C20.427 4.40563 20.1342 4.30808 20.2318 3.7225C20.2318 3.33211 20.2318 2.84422 20.2318 2.35623C20.2318 1.96584 20.427 1.6731 20.915 1.6731C21.4029 1.6731 21.598 1.96584 21.598 2.35623C21.598 2.64902 21.598 2.94172 21.598 3.23451Z" fill="#C2C2C2"/>
<path id="Vector_10" d="M16.0357 19.6309C16.0357 20.802 15.0598 21.6805 13.8887 21.6805C12.7177 21.6805 11.8394 20.7043 11.8394 19.5332C11.8394 18.4596 12.8153 17.4838 13.8887 17.4838C15.0598 17.5814 16.0357 18.4597 16.0357 19.6309ZM14.6694 19.6309C14.6694 19.1429 14.3766 18.9477 13.9863 18.9477C13.5959 18.9477 13.4008 19.1428 13.3032 19.5332C13.3032 19.9236 13.4984 20.2165 13.8887 20.2165C14.3767 20.3141 14.5718 20.0212 14.6694 19.6309Z" fill="#060606"/>
<path id="Vector_11" d="M9.10686 25.0964C9.10686 26.2676 8.2286 27.1458 7.05755 27.1458C5.8865 27.1458 5.00818 26.17 5.00818 25.0964C5.00818 23.9252 5.8865 23.0468 7.05755 23.0468C8.13101 23.0468 9.10686 24.0228 9.10686 25.0964ZM7.05755 25.7795C7.4479 25.7795 7.74067 25.4868 7.74067 25.0964C7.74067 24.706 7.4479 24.413 7.05755 24.413C6.6672 24.413 6.37443 24.7059 6.37443 24.9987C6.37443 25.4867 6.56961 25.7795 7.05755 25.7795Z" fill="#060606"/>
<path id="Vector_12" d="M16.0356 14.0679C16.0356 15.239 15.1573 16.1173 13.9862 16.1173C12.8152 16.1173 11.9369 15.239 11.9369 14.0679C11.9369 12.8967 12.8152 11.9208 13.9862 11.9208C15.0597 12.0184 16.0356 12.8967 16.0356 14.0679ZM13.9862 14.751C14.3766 14.6534 14.6693 14.4582 14.6693 13.9702C14.6693 13.5798 14.3766 13.2871 13.9862 13.3847C13.5959 13.3847 13.4007 13.6775 13.4007 14.0679C13.3031 14.5559 13.5959 14.751 13.9862 14.751Z" fill="#060606"/>
<path id="Vector_13" d="M16.0356 25.0964C16.0356 26.2676 15.1573 27.1458 13.9862 27.1458C12.8152 27.1458 11.9369 26.2676 11.9369 25.0964C11.9369 23.9252 12.8152 23.0468 13.9862 23.0468C15.0597 23.0468 16.0356 23.9252 16.0356 25.0964ZM13.9862 25.7795C14.3766 25.7795 14.6693 25.4868 14.6693 25.0964C14.6693 24.706 14.3766 24.5107 13.9862 24.5107C13.4983 24.5107 13.3031 24.8035 13.3031 25.1938C13.3031 25.5842 13.5959 25.7795 13.9862 25.7795Z" fill="#060606"/>
<path id="Vector_14" d="M22.9643 14.0679C22.9643 15.2391 21.9884 16.1173 20.8174 16.1173C19.6463 16.1173 18.7681 15.2391 18.7681 14.0679C18.7681 12.8968 19.6463 12.0183 20.8174 12.0183C22.086 12.0183 22.9643 12.8968 22.9643 14.0679ZM21.5981 14.0679C21.5981 13.6776 21.4029 13.3848 20.915 13.3848C20.5247 13.3848 20.3295 13.5799 20.2319 13.9703C20.2319 14.4582 20.4271 14.6534 20.915 14.6534C21.3054 14.751 21.5005 14.5559 21.5981 14.0679Z" fill="#060606"/>
<path id="Vector_15" d="M9.10689 19.6309C9.10689 20.802 8.13101 21.6805 6.95996 21.6805C5.78891 21.6805 4.91064 20.7043 4.91064 19.5332C4.91064 18.4596 5.88649 17.4838 6.95996 17.4838C8.22859 17.5814 9.10689 18.4597 9.10689 19.6309ZM7.7407 19.6309C7.7407 19.1429 7.44793 18.9477 7.05758 18.9477C6.66723 18.9477 6.37446 19.2405 6.37446 19.6309C6.37446 20.0212 6.66723 20.314 7.05758 20.314C7.44793 20.314 7.64312 20.0212 7.7407 19.6309Z" fill="#060606"/>
<path id="Vector_16" d="M7.05755 12.0183C8.2286 12.0183 9.10686 12.9944 9.10686 14.0679C9.10686 15.2391 8.13101 16.1173 7.05755 16.1173C5.8865 16.1173 5.00818 15.2391 5.00818 14.0679C5.00818 12.9944 5.8865 12.0183 7.05755 12.0183ZM7.05755 14.7511C7.4479 14.6535 7.74064 14.4583 7.64305 14.0679C7.64305 13.6776 7.35028 13.3847 6.95993 13.4823C6.56958 13.4823 6.37443 13.775 6.37443 14.1654C6.37443 14.4582 6.6672 14.7511 7.05755 14.7511Z" fill="#060606"/>
<path id="Vector_17" d="M29.2099 36.2225C24.2329 36.2225 20.2318 32.221 20.2318 27.2436C20.2318 22.2661 24.2329 18.2646 29.2099 18.2646C34.1868 18.2646 38.1879 22.2661 38.1879 27.2436C38.1879 32.221 34.1868 36.2225 29.2099 36.2225ZM36.7241 26.6579C36.5289 23.242 33.7965 20.3142 30.4785 19.7286C29.893 19.631 29.8929 19.9237 29.8929 20.314C29.8929 20.8996 30.0882 21.583 29.2099 21.6806C28.3316 21.6806 28.5267 20.8997 28.5267 20.4117C28.5267 19.9238 28.4291 19.6309 27.8436 19.8261C24.7208 20.4116 22.2811 22.8515 21.6956 25.877C21.4029 27.2434 21.4028 27.2436 22.7691 27.2436C22.8666 27.2436 22.9642 27.2436 22.9642 27.2436C23.3546 27.3411 23.5498 27.5363 23.6474 27.9267C23.745 28.3171 23.4522 28.5122 23.0618 28.6098C22.8666 28.6098 22.6715 28.6098 22.4763 28.6098C21.8908 28.5122 21.7932 28.805 21.9884 29.293C22.9642 32.2209 24.916 33.9776 27.9412 34.6608C28.4291 34.7584 28.7219 34.6609 28.6243 34.0754C28.6243 33.4898 28.4291 32.8065 29.3074 32.8065C30.1857 32.8065 29.9906 33.5874 29.9906 34.0754C29.9906 34.6609 30.1857 34.7584 30.6737 34.6608C33.3085 34.0752 35.2603 32.5137 36.3337 30.0738C36.5289 29.5858 36.8217 29.0979 36.6265 28.7075C36.5289 28.4147 35.9434 28.6098 35.553 28.6098C35.1627 28.6098 34.8699 28.3171 34.8699 27.9267C34.8699 27.5363 35.1627 27.2436 35.553 27.2436C35.7482 27.2436 36.0409 27.2436 36.2361 27.2436C36.6265 27.2436 36.9192 27.1459 36.7241 26.6579Z" fill="#040505"/>
<path id="Vector_18" d="M14.6694 19.6309C14.6694 20.0213 14.3766 20.3141 13.9863 20.3141C13.5959 20.3141 13.3032 20.0213 13.4008 19.6309C13.4008 19.2406 13.6935 19.0453 14.0839 19.0453C14.3766 18.9477 14.6694 19.143 14.6694 19.6309Z" fill="#EAA3A6"/>
<path id="Vector_19" d="M7.05751 25.7796C6.56958 25.7796 6.37439 25.4868 6.37439 25.0964C6.37439 24.706 6.66716 24.5107 7.05751 24.5107C7.44786 24.5107 7.74064 24.7059 7.74064 25.1939C7.74064 25.5843 7.44786 25.7796 7.05751 25.7796Z" fill="#C2C2C2"/>
<path id="Vector_20" d="M13.9862 14.751C13.5959 14.751 13.3031 14.5559 13.3031 14.0679C13.3031 13.6775 13.4983 13.3848 13.8887 13.3848C14.279 13.3848 14.5718 13.5798 14.5718 13.9702C14.6694 14.4582 14.3766 14.6534 13.9862 14.751Z" fill="#C2C2C2"/>
<path id="Vector_21" d="M13.9862 25.7796C13.5959 25.7796 13.3031 25.5844 13.3031 25.0965C13.3031 24.7061 13.4983 24.4131 13.9862 24.4131C14.3766 24.4131 14.6693 24.6084 14.6693 24.9988C14.6693 25.5843 14.3766 25.7796 13.9862 25.7796Z" fill="#C2C2C2"/>
<path id="Vector_22" d="M21.598 14.068C21.598 14.556 21.3053 14.7511 20.9149 14.7511C20.5246 14.7511 20.2318 14.4584 20.2318 14.068C20.2318 13.6776 20.5246 13.4823 20.9149 13.4823C21.3053 13.3847 21.5004 13.6776 21.598 14.068Z" fill="#C2C2C2"/>
<path id="Vector_23" d="M7.74064 19.6309C7.74064 20.0213 7.44786 20.314 7.05751 20.314C6.66716 20.314 6.37439 20.0213 6.37439 19.6309C6.37439 19.2405 6.66716 18.9478 7.05751 18.9478C7.44786 18.9478 7.74064 19.2405 7.74064 19.6309Z" fill="#BABABA"/>
<path id="Vector_24" d="M7.05751 14.751C6.56958 14.751 6.37439 14.4583 6.37439 14.0679C6.37439 13.6775 6.56954 13.3848 6.95989 13.3848C7.35024 13.3848 7.64301 13.5798 7.64301 13.9702C7.7406 14.4582 7.44786 14.6534 7.05751 14.751Z" fill="#C2C2C2"/>
<path id="Vector_25" d="M36.7241 26.658C36.9193 27.146 36.6266 27.2437 36.1386 27.2437C35.9435 27.2437 35.6507 27.2437 35.4555 27.2437C35.0652 27.2437 34.7724 27.5364 34.7724 27.9268C34.7724 28.3172 35.0652 28.61 35.4555 28.61C35.8459 28.61 36.4314 28.4149 36.529 28.7077C36.7242 29.098 36.4314 29.6835 36.2362 30.0739C35.1627 32.6115 33.211 34.0754 30.5761 34.6609C30.0882 34.7585 29.7954 34.6611 29.893 34.0755C29.893 33.5875 30.0882 32.8067 29.21 32.8067C28.3317 32.8067 28.5268 33.5875 28.5268 34.0755C28.5268 34.6611 28.3317 34.7585 27.8437 34.6609C24.8185 33.9778 22.8668 32.221 21.8909 29.2931C21.6957 28.8051 21.7933 28.5124 22.3788 28.61C22.574 28.61 22.7692 28.61 22.9643 28.61C23.3547 28.5124 23.5498 28.3172 23.5498 27.9268C23.5498 27.5364 23.2571 27.3413 22.8668 27.2437C22.7692 27.2437 22.6716 27.2437 22.6716 27.2437C21.3054 27.1461 21.3053 27.146 21.5981 25.8772C22.1836 22.7541 24.6234 20.4118 27.7462 19.8262C28.3317 19.7286 28.4292 19.9239 28.4292 20.4119C28.4292 20.8999 28.2341 21.6807 29.1123 21.6807C29.9906 21.6807 29.7955 20.8998 29.7955 20.3142C29.7955 19.8262 29.7954 19.6312 30.381 19.7288C33.7965 20.3143 36.529 23.2421 36.7241 26.658ZM34.0893 24.4132C34.0893 24.1204 33.8941 23.9254 33.699 23.8278C33.4062 23.6326 33.1134 23.8277 32.9183 24.0229C32.2352 24.6085 31.4544 25.1942 30.7713 25.7797C30.381 26.0725 29.9906 26.658 29.6003 26.658C29.0148 26.658 28.9172 25.8773 28.6244 25.4869C28.3316 25.1941 28.0389 24.9013 27.6485 25.1941C27.1606 25.4869 27.2582 25.8773 27.4533 26.2677C27.8437 26.8533 28.2341 27.4389 28.6244 28.0245C29.0148 28.6101 29.4051 28.7077 29.9906 28.2197C31.2593 27.1461 32.5279 26.0726 33.7965 25.0966C33.7965 24.999 33.9917 24.8036 34.0893 24.4132Z" fill="#F5F5F5"/>
<path id="Vector_26" d="M34.0894 24.413C34.0894 24.7058 33.8942 24.9012 33.699 25.0964C32.4303 26.17 31.1617 27.1459 29.893 28.2195C29.3075 28.7075 28.9172 28.6099 28.5269 28.0243C28.1365 27.4387 27.7461 26.8531 27.3558 26.2675C27.063 25.8771 27.063 25.4867 27.551 25.1939C27.9413 24.9011 28.2341 25.1939 28.5269 25.4867C28.8196 25.8771 29.0148 26.6578 29.5027 26.6578C29.8931 26.6578 30.2834 26.0723 30.6738 25.7795C31.3569 25.194 32.1376 24.6083 32.8207 24.0227C33.0158 23.8276 33.3087 23.73 33.6014 23.8276C33.8942 23.9252 33.9918 24.2178 34.0894 24.413Z" fill="#090807"/>
</g>
</svg>
