<svg width="151" height="147" viewBox="0 0 151 147" fill="none" xmlns="http://www.w3.org/2000/svg">
<g id="Group">
<g id="Group_2">
<path id="Vector" d="M24.1699 77.6918L41.2477 87.5492C42.2236 88.1348 43.297 88.1348 44.2729 87.5492L61.4483 77.6918V73.6904V72.6167L44.3705 63.833C43.3946 63.2474 42.3212 63.2474 41.3453 63.833L24.2675 72.9096L24.1699 77.6918Z" fill="#A6CBF3"/>
<path id="Vector_2" d="M24.1699 72.4215L24.2675 73.2024L26.9999 74.7638L41.3453 83.0595C42.3212 83.6451 43.3946 83.6451 44.3705 83.0595L58.7158 74.7638L61.5458 73.1047V72.3238L44.468 62.4667C43.4922 61.8811 42.4187 61.8811 41.4428 62.4667L24.1699 72.4215Z" fill="white"/>
<path id="Vector_3" d="M24.1699 72.4216L24.853 72.8119L27.683 74.471L41.3453 82.3764C42.3212 82.962 43.3946 82.962 44.3705 82.3764L58.0327 74.471L60.8628 72.9096L61.5458 72.519L44.468 62.6618C43.4922 62.0763 42.4187 62.0763 41.4428 62.6618L24.1699 72.4216Z" fill="#F3F5F9"/>
<g id="Group_3" opacity="0.32">
<path id="Vector_4" d="M42.7116 78.8628L27.9758 73.0069L32.9529 70.2744L42.7116 78.8628Z" fill="#0E1B62"/>
</g>
<g id="Group_4">
<path id="Vector_5" d="M42.9068 50.267V78.8628L32.8552 73.1047V44.3135L42.9068 50.267Z" fill="#006909"/>
<path id="Vector_6" d="M52.763 44.3135V73.007L42.9067 78.8628V50.0716L52.763 44.3135Z" fill="#2DB33F"/>
<path id="Vector_7" d="M52.7631 44.3134L42.9068 38.5553L32.8552 44.3134L42.8092 50.267L52.7631 44.3134Z" fill="#A8F7B3"/>
</g>
</g>
<g id="Group_5">
<path id="Vector_8" d="M0.553711 80.1316L0.651275 85.2066L17.7291 95.0641C18.7049 95.6496 19.7785 95.6496 20.7544 95.0641L37.9297 85.2066V81.2053L20.8519 71.3479C19.8761 70.7623 18.8026 70.7623 17.8268 71.3479L0.553711 80.1316Z" fill="#A6CBF3"/>
<path id="Vector_9" d="M0.553711 79.6437L0.651275 80.4245L3.38377 81.9862L17.7291 90.2819C18.7049 90.8675 19.7785 90.8675 20.7544 90.2819L35.0997 81.9862L37.9297 80.3268V79.5462L20.8519 69.6888C19.8761 69.1032 18.8026 69.1032 17.8268 69.6888L0.553711 79.6437Z" fill="white"/>
<path id="Vector_10" d="M0.553711 79.6437L1.23689 80.0343L4.06683 81.6934L17.7291 89.5986C18.7049 90.1842 19.7785 90.1842 20.7544 89.5986L34.4166 81.6934L37.2466 80.1317L37.9297 79.7414L20.8519 69.884C19.8761 69.2984 18.8026 69.2984 17.8268 69.884L0.553711 79.6437Z" fill="#F3F5F9"/>
<g id="Group_6" opacity="0.32">
<path id="Vector_11" d="M19.0953 86.1826L4.35962 80.3268L9.33655 77.5942L19.0953 86.1826Z" fill="#0E1B62"/>
</g>
<g id="Group_7">
<path id="Vector_12" d="M19.2907 48.0223V86.0852L9.33667 80.3268V42.0687L19.2907 48.0223Z" fill="#006909"/>
<path id="Vector_13" d="M29.1471 42.0687V80.2294L19.2908 86.0852V47.9246L29.1471 42.0687Z" fill="#2DB33F"/>
<path id="Vector_14" d="M29.147 42.0687L19.2907 36.3105L9.33667 42.0687L19.193 48.0222L29.147 42.0687Z" fill="#A8F7B3"/>
</g>
</g>
<g id="Group_8">
<g id="Group_9">
<path id="Vector_15" d="M145.861 96.2352L139.713 99.7488H139.616L133.37 82.0836L121.172 75.0566L121.074 74.9589L114.926 57.294L111.803 59.0508L112.096 44.6063L124.099 51.9261L121.172 53.5852L127.222 71.1527L127.417 71.2504L139.713 78.2774V78.3748L145.764 96.1377L145.861 96.2352Z" fill="#1D794A"/>
</g>
<g id="Group_10">
<path id="Vector_16" d="M139.713 78.3748L133.37 82.0835L121.172 75.0566L121.074 74.9589L127.417 71.2504L139.713 78.2773V78.3748Z" fill="#469D50"/>
</g>
</g>
<g id="Group_11">
<path id="Vector_17" opacity="0.46" d="M148.496 102.189L104.777 77.1063L30.7083 113.51V116.536C30.7083 117.414 30.9034 118.292 31.2938 118.975C31.7817 119.854 32.4648 120.635 33.3431 121.123L74.8177 145.229C77.5502 146.791 80.9658 146.791 83.6983 145.229L148.496 107.752C149.57 107.166 150.155 105.995 150.155 104.922C150.058 103.946 149.57 102.774 148.496 102.189Z" fill="#354594"/>
<path id="Vector_18" d="M103.021 17.572C102.923 17.6696 102.435 18.5479 102.435 19.5239V28.9908V69.5911L30.9034 113.315L30.6107 113.51L29.6349 113.022C29.1469 112.729 28.7565 112.436 28.4637 111.948C28.171 111.46 28.0735 110.972 28.0735 110.387V57.9771C28.0735 57.1964 28.3662 56.5132 28.7566 55.83C29.0493 55.4397 29.4396 55.1469 29.83 54.8541L78.819 26.9412L97.0677 16.4983C98.1412 15.9127 99.4099 15.9126 100.386 16.4006C100.776 16.4982 103.021 17.572 103.021 17.572Z" fill="#334EBE"/>
<path id="Vector_19" d="M148.496 99.2608L104.777 74.1783L30.7083 113.51V114.974C30.7083 115.657 30.9034 116.34 31.2938 116.828C31.4889 117.121 31.8793 117.414 32.1721 117.609L74.8177 142.399C77.5502 143.96 80.9658 143.96 83.6983 142.399L148.496 104.921C149.57 104.336 150.155 103.165 150.155 102.091C150.155 101.993 150.058 98.6751 150.058 98.6751C150.058 98.6751 148.984 99.5536 148.496 99.2608Z" fill="#334EBE"/>
<path id="Vector_20" d="M148.496 96.0401L104.777 70.9576L30.7083 113.51L74.9154 139.178C77.6479 140.74 81.0634 140.74 83.7958 139.178L148.594 101.701C149.667 101.115 150.253 99.9439 150.253 98.8703C150.058 97.6992 149.57 96.6257 148.496 96.0401Z" fill="#5E9FE9"/>
<path id="Vector_21" d="M129.857 88.5251L109.071 76.6183C108.778 76.4231 108.388 76.4231 107.997 76.6183L41.2477 114.974C40.5646 115.364 40.5646 116.34 41.2477 116.731L61.9362 128.735C62.1313 128.833 62.4241 128.93 62.6192 128.833C62.7168 128.833 62.8144 128.735 63.0096 128.735L129.955 90.3794C130.54 89.8914 130.54 88.9155 129.857 88.5251Z" fill="#A1D0DE"/>
<path id="Vector_22" opacity="0.25" d="M105.753 74.2758L104.777 73.6904C104.484 73.5928 104.191 73.6902 103.996 73.7878L37.2465 112.144C36.5634 112.534 36.5634 113.51 37.2465 113.9L38.4176 114.584C38.5152 114.584 38.5151 114.584 38.6127 114.584C38.7103 114.584 38.8079 114.486 39.0031 114.486L105.948 76.1303C106.534 75.7399 106.534 74.7638 105.753 74.2758Z" fill="#354594"/>
<g id="Group_12">
<g id="Group_13">
<path id="Vector_23" d="M107.705 95.3569L101.85 98.6751C101.752 98.7727 101.557 98.7727 101.459 98.6751L97.9461 96.6257C97.6534 96.4305 97.6534 96.1375 97.9461 95.9423L103.801 92.6241C103.899 92.5265 104.094 92.5265 104.192 92.6241L107.705 94.6737C107.802 94.7713 107.9 94.8687 107.9 94.9663C107.9 95.1615 107.802 95.2593 107.705 95.3569Z" fill="#5E9FE9"/>
</g>
<g id="Group_14">
<path id="Vector_24" d="M54.2268 121.025L59.3015 118.097C59.4966 118 59.7894 118 59.9845 118.097L62.9121 119.756C63.1073 119.854 63.205 120.146 63.205 120.342C63.205 120.537 63.1073 120.83 62.9121 120.927L57.8377 123.855C57.6425 123.953 57.3496 123.953 57.1545 123.855L54.2268 122.196C53.8365 121.903 53.8365 121.318 54.2268 121.025Z" fill="#5E9FE9"/>
</g>
<g id="Group_15">
<path id="Vector_25" d="M70.524 116.633L64.9615 119.854C64.7663 119.951 64.5712 119.951 64.376 119.854L61.1556 117.999C60.7652 117.804 60.7652 117.219 61.1556 117.023L66.7181 113.803C66.9133 113.705 67.1084 113.705 67.3036 113.803L70.524 115.657C70.7192 115.755 70.8167 115.95 70.8167 116.145C70.8167 116.34 70.7192 116.536 70.524 116.633Z" fill="#5E9FE9"/>
</g>
<g id="Group_16">
<path id="Vector_26" d="M77.9407 112.436L72.3781 115.657C72.1829 115.755 71.9878 115.755 71.7926 115.657L68.5723 113.803C68.182 113.607 68.182 113.022 68.5723 112.827L74.1347 109.606C74.3299 109.508 74.5251 109.508 74.7202 109.606L77.9407 111.46C78.1358 111.558 78.2334 111.656 78.2334 111.851C78.2334 112.046 78.1358 112.241 77.9407 112.436Z" fill="#5E9FE9"/>
</g>
<g id="Group_17">
<path id="Vector_27" d="M85.2597 108.24L79.7948 111.363C79.5997 111.46 79.4044 111.46 79.2092 111.363L76.0865 109.509C75.6961 109.313 75.6961 108.728 76.0865 108.533L81.5513 105.41C81.7465 105.312 81.9417 105.312 82.1368 105.41L85.2597 107.264C85.5525 107.459 85.65 107.752 85.5524 107.947C85.4548 108.044 85.3573 108.142 85.2597 108.24Z" fill="#5E9FE9"/>
</g>
<g id="Group_18">
<path id="Vector_28" d="M92.5786 104.043L87.2113 107.166C87.0162 107.264 86.7233 107.264 86.5282 107.166L83.503 105.409C83.1126 105.117 83.1126 104.531 83.503 104.336L88.8703 101.213C89.0655 101.115 89.3583 101.115 89.5535 101.213L92.5786 102.97C92.7738 103.067 92.8713 103.262 92.8713 103.458C92.8713 103.653 92.7738 103.848 92.5786 104.043Z" fill="#5E9FE9"/>
</g>
<g id="Group_19">
<path id="Vector_29" d="M99.9952 99.7488L94.5303 102.872C94.3352 102.969 94.14 102.969 93.9448 102.872L90.7244 101.018C90.3341 100.822 90.3341 100.237 90.7244 100.042L96.1893 96.9183C96.3844 96.8207 96.5796 96.8207 96.7748 96.9183L99.9952 98.7728C100.19 98.8704 100.288 99.0656 100.288 99.2608C100.288 99.456 100.19 99.6512 99.9952 99.7488Z" fill="#5E9FE9"/>
</g>
<g id="Group_20">
<path id="Vector_30" d="M111.608 88.4274L114.731 90.1842C114.926 90.2818 115.024 90.477 115.024 90.6722C115.024 90.8674 114.926 91.0626 114.731 91.1602L109.266 94.2833C109.071 94.3809 108.876 94.3809 108.681 94.2833L105.558 92.5265C105.167 92.3313 105.167 91.7457 105.558 91.5505L111.023 88.4274C111.218 88.3298 111.413 88.3298 111.608 88.4274Z" fill="#5E9FE9"/>
</g>
<g id="Group_21">
<path id="Vector_31" d="M121.855 87.1586L116.683 90.1842C116.488 90.2818 116.195 90.2818 116 90.1842L113.072 88.5251C112.584 88.2323 112.584 87.5491 113.072 87.2563L118.244 84.2307C118.439 84.1331 118.732 84.1331 118.927 84.2307L121.855 85.89C122.148 86.0852 122.245 86.3778 122.148 86.6706C122.148 86.8658 122.05 87.061 121.855 87.1586Z" fill="#5E9FE9"/>
</g>
<g id="Group_22">
<path id="Vector_32" d="M59.1062 124.05L64.4735 121.025C64.6687 120.927 64.8639 120.927 65.059 121.025L68.1819 122.782C68.3771 122.879 68.4746 123.074 68.4746 123.27C68.4746 123.465 68.3771 123.66 68.1819 123.758L62.8146 126.881C62.6194 126.978 62.4243 126.978 62.2291 126.881L59.1062 125.124C58.7159 124.831 58.7159 124.246 59.1062 124.05Z" fill="#5E9FE9"/>
</g>
<g id="Group_23">
<path id="Vector_33" d="M66.3277 119.854L71.7925 116.731C71.9877 116.633 72.1829 116.633 72.378 116.731L75.4034 118.487C75.5985 118.585 75.696 118.78 75.696 118.975C75.696 119.171 75.5985 119.366 75.4034 119.463L69.9384 122.587C69.7432 122.684 69.548 122.684 69.3529 122.587L66.3277 120.83C65.9373 120.635 65.9373 120.147 66.3277 119.854Z" fill="#5E9FE9"/>
</g>
<g id="Group_24">
<path id="Vector_34" d="M73.7442 115.657L79.2091 112.534C79.4042 112.436 79.5995 112.436 79.7947 112.534L82.8199 114.291C83.015 114.388 83.1125 114.583 83.1125 114.779C83.1125 114.974 83.015 115.169 82.8199 115.364L77.355 118.487C77.1598 118.585 76.9645 118.585 76.7694 118.487L73.7442 116.731C73.3538 116.438 73.3538 115.852 73.7442 115.657Z" fill="#5E9FE9"/>
</g>
<g id="Group_25">
<path id="Vector_35" d="M81.1609 111.363L101.264 99.8463C101.459 99.7487 101.654 99.7487 101.85 99.8463L104.875 101.603C105.07 101.701 105.168 101.896 105.168 102.091C105.168 102.286 105.07 102.482 104.875 102.677L84.7717 114.193C84.5766 114.291 84.3814 114.291 84.1862 114.193L81.1609 112.436C80.7706 112.241 80.7706 111.656 81.1609 111.363Z" fill="#5E9FE9"/>
</g>
<g id="Group_26">
<path id="Vector_36" d="M103.118 98.7728L108.681 95.5521C108.876 95.4545 109.071 95.4545 109.168 95.5521L112.389 97.4063C112.486 97.5039 112.584 97.6017 112.682 97.7969C112.682 97.9921 112.682 98.1871 112.389 98.3823L106.826 101.603C106.631 101.701 106.436 101.701 106.338 101.603L103.118 99.7488C102.728 99.456 102.728 98.968 103.118 98.7728Z" fill="#5E9FE9"/>
</g>
<g id="Group_27">
<path id="Vector_37" d="M110.632 94.4784L116 91.3553C116.195 91.2577 116.39 91.2577 116.683 91.3553L119.61 93.0144C119.903 93.2096 120.001 93.5024 119.903 93.7952C119.806 93.8928 119.806 93.9905 119.61 94.0881L114.243 97.2111C114.048 97.3087 113.853 97.3087 113.56 97.2111L110.632 95.552C110.242 95.3568 110.242 94.6736 110.632 94.4784Z" fill="#5E9FE9"/>
</g>
<g id="Group_28">
<path id="Vector_38" d="M118.244 90.0866L123.417 87.1586C123.612 87.061 123.904 87.061 124.197 87.1586L126.93 88.7203C127.222 88.9155 127.32 89.3058 127.222 89.5986C127.125 89.7938 127.027 89.8915 126.93 89.9891L121.758 92.917C121.562 93.0146 121.27 93.0146 120.977 92.917L118.244 91.3554C117.659 91.1602 117.659 90.3794 118.244 90.0866Z" fill="#5E9FE9"/>
</g>
<g id="Group_29">
<path id="Vector_39" d="M49.1522 118.195L54.3243 115.267C54.5194 115.169 54.7147 115.169 54.9099 115.267L57.9351 117.023C58.1302 117.121 58.2278 117.316 58.2278 117.511C58.2278 117.707 58.1302 118 57.9351 118.097L52.7629 121.025C52.5677 121.123 52.275 121.123 52.0798 121.025L49.0546 119.268C48.7619 118.975 48.7619 118.39 49.1522 118.195Z" fill="#5E9FE9"/>
</g>
<g id="Group_30">
<path id="Vector_40" d="M59.399 116.926L56.3738 115.169C55.9835 114.974 55.9835 114.291 56.3738 114.096L61.7411 110.972C61.9363 110.875 62.1315 110.875 62.3266 110.972L65.3518 112.729C65.547 112.827 65.6446 113.022 65.6446 113.315C65.6446 113.51 65.547 113.705 65.3518 113.9L59.9845 117.023C59.7893 117.023 59.5942 117.023 59.399 116.926Z" fill="#5E9FE9"/>
</g>
<g id="Group_31">
<path id="Vector_41" d="M73.0613 109.313C72.9637 109.411 72.9637 109.508 72.7685 109.606L67.3036 112.729C67.1084 112.827 66.9133 112.827 66.7181 112.729L63.5953 110.972C63.2049 110.777 63.2049 110.192 63.5953 109.899L69.0602 106.776C69.2554 106.678 69.4506 106.678 69.6457 106.776L72.7685 108.533C73.0613 108.63 73.1589 109.021 73.0613 109.313Z" fill="#5E9FE9"/>
</g>
<g id="Group_32">
<path id="Vector_42" d="M70.9142 105.702L76.7695 102.384L80.2827 104.433C80.4779 104.531 80.5754 104.824 80.5754 105.019C80.5754 105.116 80.4779 105.312 80.2827 105.409L74.7201 108.63C74.525 108.728 74.3298 108.728 74.2322 108.63L71.0119 106.776C70.6215 106.385 70.6214 105.897 70.9142 105.702Z" fill="#5E9FE9"/>
</g>
<g id="Group_33">
<path id="Vector_43" d="M78.2332 101.506L83.8934 98.2849C84.0885 98.1873 84.2837 98.1873 84.3813 98.2849L87.6993 100.139C87.8945 100.237 87.992 100.53 87.8944 100.725C87.8944 100.822 87.7969 100.92 87.6993 101.018L82.0392 104.238C81.844 104.336 81.6488 104.336 81.5512 104.238L78.2332 102.384C77.9405 102.189 77.9405 101.701 78.2332 101.506Z" fill="#5E9FE9"/>
</g>
<g id="Group_34">
<path id="Vector_44" d="M85.7476 97.2112L91.2125 94.0881C91.4076 93.9905 91.6028 93.9905 91.798 94.0881L94.9208 95.8449C95.116 95.9425 95.2135 96.1377 95.2135 96.3329C95.2135 96.5281 95.116 96.7233 94.9208 96.8209L89.4558 99.9439C89.2607 100.042 89.0655 100.042 88.8703 99.9439L85.7476 98.1871C85.3572 97.9919 85.3572 97.4063 85.7476 97.2112Z" fill="#5E9FE9"/>
</g>
<g id="Group_35">
<path id="Vector_45" d="M93.0667 93.0144L98.6291 89.7939C98.8243 89.6963 99.0194 89.6963 99.2146 89.7939L102.435 91.6482C102.533 91.7458 102.63 91.7457 102.63 91.8433C102.728 92.1361 102.728 92.4289 102.435 92.6241L96.8726 95.8449C96.6774 95.9425 96.4822 95.9425 96.287 95.8449L93.0667 93.9904C92.6763 93.6976 92.6763 93.2096 93.0667 93.0144Z" fill="#5E9FE9"/>
</g>
<g id="Group_36">
<path id="Vector_46" d="M100.483 88.7202L106.046 85.4995C106.241 85.4019 106.436 85.4019 106.631 85.4995L109.852 87.354C110.047 87.4516 110.144 87.6468 110.144 87.8419C110.144 88.0371 110.047 88.2323 109.852 88.3299L104.289 91.5504C104.094 91.648 103.899 91.648 103.704 91.5504L100.483 89.6962C100.093 89.501 100.093 88.9154 100.483 88.7202Z" fill="#5E9FE9"/>
</g>
<g id="Group_37">
<path id="Vector_47" d="M117.171 84.1332L111.608 87.354C111.413 87.4516 111.218 87.4516 111.12 87.354L107.9 85.4995C107.51 85.3043 107.51 84.8164 107.9 84.6212L113.462 81.4005C113.658 81.3029 113.853 81.3029 113.95 81.4005L117.171 83.2547C117.366 83.3523 117.464 83.5477 117.464 83.6453C117.464 83.8404 117.366 84.0356 117.171 84.1332Z" fill="#5E9FE9"/>
</g>
<g id="Group_38">
<path id="Vector_48" d="M44.0777 115.267L49.2499 112.241C49.445 112.144 49.6402 112.144 49.8354 112.241L52.9582 113.998C53.0558 114.095 53.1534 114.096 53.1534 114.193C53.3485 114.486 53.251 114.876 52.9582 114.974L47.786 117.999C47.5909 118.097 47.3957 118.097 47.2005 117.999L44.0777 116.243C43.6873 116.047 43.6873 115.559 44.0777 115.267Z" fill="#5E9FE9"/>
</g>
<g id="Group_39">
<path id="Vector_49" d="M60.6675 110.289C60.6675 110.485 60.57 110.777 60.3748 110.973L55.0075 114.096C54.8123 114.193 54.6172 114.193 54.422 114.096L51.2991 112.339C50.9088 112.144 50.9088 111.461 51.2991 111.265L56.6664 108.142C56.8616 108.044 57.0567 108.044 57.2519 108.142L60.3748 109.899C60.57 109.899 60.6675 110.094 60.6675 110.289Z" fill="#5E9FE9"/>
</g>
<g id="Group_40">
<path id="Vector_50" d="M67.9868 106.19C67.9868 106.385 67.8892 106.678 67.6941 106.776L62.3268 109.801C62.1316 109.899 61.8388 109.899 61.6436 109.801L58.6184 108.045C58.1305 107.752 58.1305 107.166 58.6184 106.873L63.9857 103.848C64.1809 103.75 64.4737 103.75 64.6689 103.848L67.6941 105.605C67.8892 105.702 67.9868 105.897 67.9868 106.19Z" fill="#5E9FE9"/>
</g>
<g id="Group_41">
<path id="Vector_51" d="M75.501 101.896C75.501 102.091 75.4034 102.286 75.2082 102.384L69.7433 105.507C69.5481 105.605 69.353 105.605 69.1578 105.507L66.0349 103.75C65.6446 103.555 65.6446 102.969 66.0349 102.774L71.4999 99.6511C71.6951 99.5535 71.8903 99.5535 72.0854 99.6511L75.2082 101.408C75.4034 101.505 75.501 101.701 75.501 101.896Z" fill="#5E9FE9"/>
</g>
<g id="Group_42">
<path id="Vector_52" d="M82.8198 97.6991C82.8198 97.8943 82.7222 98.0895 82.527 98.1871L77.0622 101.31C76.867 101.408 76.6718 101.408 76.4767 101.31L73.3538 99.4559C72.9634 99.2607 72.9634 98.6751 73.3538 98.48L78.8188 95.3569C79.014 95.2593 79.2091 95.2593 79.4043 95.3569L82.527 97.2111C82.7222 97.3087 82.8198 97.5039 82.8198 97.6991Z" fill="#5E9FE9"/>
</g>
<g id="Group_43">
<path id="Vector_53" d="M90.2365 93.4049C90.2365 93.6001 90.1388 93.7951 89.9437 93.9903L84.4788 97.1136C84.2836 97.2112 84.0885 97.2112 83.8933 97.1136L80.7705 95.3568C80.3802 95.1616 80.3802 94.576 80.7705 94.2832L86.2354 91.1601C86.4306 91.0625 86.6257 91.0625 86.8209 91.1601L89.9437 92.9169C90.0413 93.0145 90.1389 93.2097 90.2365 93.4049Z" fill="#5E9FE9"/>
</g>
<g id="Group_44">
<path id="Vector_54" d="M97.6531 89.1105C97.6531 89.3057 97.6532 89.5986 97.3604 89.6962L91.7979 92.917C91.6027 93.0146 91.4075 93.0146 91.31 92.917L88.0896 91.0625C87.6993 90.8673 87.6993 90.3794 88.0896 90.1842L93.6521 86.9635C93.8472 86.8659 94.0424 86.8659 94.14 86.9635L97.3604 88.8179C97.5556 88.8179 97.6531 89.013 97.6531 89.1105Z" fill="#5E9FE9"/>
</g>
<g id="Group_45">
<path id="Vector_55" d="M104.972 85.0115C104.972 85.2067 104.875 85.4019 104.68 85.4995L99.117 88.7202C98.9218 88.8178 98.7267 88.8178 98.5315 88.7202L95.3111 86.866C94.9207 86.6708 94.9207 86.0852 95.3111 85.89L100.874 82.6693C101.069 82.5717 101.264 82.5717 101.459 82.6693L104.68 84.5235C104.875 84.6211 104.972 84.8163 104.972 85.0115Z" fill="#5E9FE9"/>
</g>
<g id="Group_46">
<path id="Vector_56" d="M111.901 81.3028L106.631 84.3284C106.436 84.426 106.143 84.426 105.948 84.3284L102.923 82.5716C102.533 82.2788 102.533 81.6932 102.923 81.4004L108.193 78.3748C108.388 78.2772 108.681 78.2772 108.876 78.3748L111.901 80.1316C112.096 80.2292 112.194 80.4244 112.194 80.6196C112.291 80.9124 112.194 81.2052 111.901 81.3028Z" fill="#5E9FE9"/>
</g>
</g>
<path id="Vector_57" d="M124.49 110.485C124.49 110.777 124.295 110.972 124.1 111.168L103.216 123.172C102.923 123.367 102.63 123.27 102.435 123.172L101.947 122.879L91.8957 117.024C91.3102 116.731 91.3102 115.95 91.8957 115.56L112.682 103.653C112.975 103.458 113.267 103.458 113.463 103.653L114.243 104.141L124.002 109.704C124.295 109.899 124.49 110.192 124.49 110.485Z" fill="#334EBE"/>
<path id="Vector_58" opacity="0.25" d="M123.709 110.485C123.709 110.777 123.611 110.972 123.319 111.168L103.508 122.587C103.313 122.684 102.923 122.684 102.728 122.587L102.337 122.294C110.632 116.828 115.317 111.363 114.145 104.531L123.416 109.801C123.611 109.899 123.709 110.192 123.709 110.485Z" fill="#354594"/>
<path id="Vector_59" d="M105.07 20.7924V27.429V70.7624L31.0011 113.119L30.7083 113.315V59.1482C30.7083 58.3674 31.001 57.6842 31.3913 57.0011C31.6841 56.6107 32.0745 56.3179 32.4649 56.0251L78.8189 29.5761L99.7025 17.6693C100.776 17.0837 101.947 17.0839 102.923 17.5719C104.192 18.1574 105.07 19.3284 105.07 20.7924Z" fill="#A6CBF3"/>
<path id="Vector_60" d="M101.459 22.2564V26.8437V62.0761V62.6618V69.3959L34.2214 107.849V101.31V100.725V65.4921V64.9066V59.4411C34.2214 59.2459 34.3191 59.0506 34.4167 58.8554C34.5143 58.7578 34.6118 58.6604 34.7094 58.5628L99.9954 21.2804C100.191 21.1828 100.288 21.183 100.483 21.183C100.776 21.183 100.971 21.2806 101.166 21.4758C101.362 21.671 101.459 21.9636 101.459 22.2564Z" fill="#0F1F64"/>
<g id="Group_47">
<path id="Vector_61" d="M101.459 61.9786V62.5641L34.2214 101.213V100.725L101.459 61.9786Z" fill="#5E9FE9"/>
<path id="Vector_62" d="M101.459 26.2579V26.8436L34.2214 65.492V64.9065L101.459 26.2579Z" fill="#5E9FE9"/>
</g>
<g id="Group_48">
<path id="Vector_63" d="M86.4308 52.3165L85.1622 52.9996V50.2671L84.6743 50.5597V53.2925L83.5032 53.9756V60.6123L84.6743 59.9291V63.5402L85.1622 63.2473V59.6363L86.4308 59.0508V52.3165Z" fill="#354594"/>
<path id="Vector_64" d="M82.3322 51.1453L81.161 51.8285V46.0703L80.6731 46.3632V52.1213L79.4045 52.8044V56.5132L80.6731 55.83V59.3434L81.161 59.0508V55.5372L82.3322 54.9515V51.1453Z" fill="#354594"/>
<path id="Vector_65" d="M94.5304 52.3164L93.3593 52.9996V50.0717L92.7738 50.3645V53.2924L91.6028 53.9755V56.0252L92.7738 55.4395V59.6362L93.3593 59.3434V55.1469L94.5304 54.4635V52.3164Z" fill="#354594"/>
<path id="Vector_66" d="M70.1335 59.2459L68.9624 59.929V56.318L68.4745 56.6108V60.2219L67.3035 60.905V62.9547L68.4745 62.369V65.8826L68.9624 65.5897V62.0761L70.1335 61.393V59.2459Z" fill="#354594"/>
<path id="Vector_67" d="M78.2333 44.3135L77.0623 44.8992V43.6304L76.5743 43.9232V45.1918L75.4033 45.8752V56.318L76.5743 55.6349V57.6843L77.0623 57.3914V55.342L78.2333 54.7564V44.3135Z" fill="#354594"/>
<path id="Vector_68" d="M74.2323 55.5372L73.0613 56.2203V51.9261L72.4758 52.219V56.5132L71.3047 57.1963V66.0778L72.4758 65.3946V65.9801L73.0613 65.6872V65.1018L74.2323 64.5161V55.5372Z" fill="#354594"/>
<path id="Vector_69" d="M90.4318 56.6108L89.2608 57.2939V51.4381L88.7728 51.7309V57.5868L87.5042 58.2699V67.2488L88.7728 66.5657V67.6391L89.2608 67.3465V66.2729L90.4318 65.6872V56.6108Z" fill="#354594"/>
<path id="Vector_70" d="M62.0338 64.8089L60.8628 65.492V63.4426L60.3749 63.7352V65.7849L59.1062 66.468V75.3494L60.3749 74.6663V79.7413L60.8628 79.4485V74.3735L62.0338 73.7878V64.8089Z" fill="#354594"/>
<path id="Vector_71" d="M66.1327 57.8794L64.864 58.5628V57.782L64.3761 58.0748V58.8554L63.2051 59.4411V74.959L64.3761 74.2758V77.0086L64.864 76.7158V73.983L66.1327 73.3975V57.8794Z" fill="#354594"/>
<path id="Vector_72" d="M45.8344 63.4427L44.6634 64.1258V60.5148L44.0777 60.8074V64.4187L42.9067 65.1018V67.1512L44.0777 66.5658V70.0791L44.6634 69.7865V66.2729L45.8344 65.5898V63.4427Z" fill="#354594"/>
<path id="Vector_73" d="M57.9353 73.3976L56.7642 74.0807V69.1031L56.2762 69.396V74.3735L55.1052 75.0567V81.6933L56.2762 81.0102V82.4742L56.7642 82.1813V80.7174L57.9353 80.1317V73.3976Z" fill="#354594"/>
<path id="Vector_74" d="M48.6644 62.8569L48.1765 63.1498V65.98L47.0054 66.6631V70.2744L48.1765 69.5911V76.1303L48.6644 75.8374V69.2984L49.8354 68.7128V65.004L48.6644 65.6872V62.8569Z" fill="#354594"/>
<path id="Vector_75" d="M52.7631 66.6632L52.2752 66.956V68.3226L51.0066 69.0057V79.3509L52.2752 78.6677V80.7174L52.7631 80.4245V78.4726L53.9342 77.7894V67.3466L52.7631 68.0297V66.6632Z" fill="#354594"/>
<path id="Vector_76" d="M41.7357 66.3706L40.5646 67.0538V65.1018L40.0767 65.3946V67.3466L38.8081 68.0297V76.9109L40.0767 76.3255V81.3028L40.5646 81.0102V76.0327L41.7357 75.3495V66.3706Z" fill="#354594"/>
</g>
<g id="Group_49">
<path id="Vector_77" d="M87.504 52.3165L86.333 52.9996V50.2671L85.7475 50.5597V53.2925L84.5764 53.9756V60.6123L85.7475 59.9291V63.5402L86.333 63.2473V59.6363L87.504 59.0508V52.3165Z" fill="#E15355"/>
<path id="Vector_78" d="M83.4055 51.1453L82.2345 51.8285V46.0703L81.7466 46.3632V52.1213L80.5754 52.8044V56.5132L81.7466 55.83V59.3434L82.2345 59.0508V55.5372L83.4055 54.9515V51.1453Z" fill="#E15355"/>
<path id="Vector_79" d="M95.6039 52.3164L94.4329 52.9996V50.0717L93.945 50.3645V53.2924L92.6763 53.9755V56.0252L93.945 55.4395V59.6362L94.4329 59.3434V55.1469L95.6039 54.4635V52.3164Z" fill="#469B4F"/>
<path id="Vector_80" d="M71.3046 59.2459L70.1336 59.929V56.318L69.5481 56.6108V60.2219L68.377 60.905V62.9547L69.5481 62.369V65.8826L70.1336 65.5897V62.0761L71.3046 61.393V59.2459Z" fill="#469B4F"/>
<path id="Vector_81" d="M79.4044 44.3135L78.2333 44.8992V43.6304L77.7454 43.9232V45.1918L76.4768 45.8752V56.318L77.7454 55.6349V57.6843L78.2333 57.3914V55.342L79.4044 54.7564V44.3135Z" fill="#469B4F"/>
<path id="Vector_82" d="M75.3056 55.5372L74.1346 56.2203V51.9261L73.6466 52.219V56.5132L72.3779 57.1963V66.0778L73.6466 65.3946V65.9801L74.1346 65.6872V65.1018L75.3056 64.5161V55.5372Z" fill="#E15355"/>
<path id="Vector_83" d="M91.6027 56.6108L90.334 57.2939V51.4381L89.8461 51.7309V57.5868L88.675 58.2699V67.2488L89.8461 66.5657V67.6391L90.334 67.3465V66.2729L91.6027 65.6872V56.6108Z" fill="#E15355"/>
<path id="Vector_84" d="M63.1073 64.8089L61.9363 65.492V63.4426L61.4483 63.7352V65.7849L60.2773 66.468V75.3494L61.4483 74.6663V79.7413L61.9363 79.4485V74.3735L63.1073 73.7878V64.8089Z" fill="#469B4F"/>
<path id="Vector_85" d="M67.2059 57.8794L66.0348 58.5628V57.782L65.4493 58.0748V58.8554L64.2783 59.4411V74.959L65.4493 74.2758V77.0086L66.0348 76.7158V73.983L67.2059 73.3975V57.8794Z" fill="#469B4F"/>
<path id="Vector_86" d="M46.9076 63.4427L45.7366 64.1258V60.5148L45.2487 60.8074V64.4187L43.98 65.1018V67.1512L45.2487 66.5658V70.0791L45.7366 69.7865V66.2729L46.9076 65.5898V63.4427Z" fill="#469B4F"/>
<path id="Vector_87" d="M59.1061 73.3976L57.9351 74.0807V69.1031L57.3496 69.396V74.3735L56.1785 75.0567V81.6933L57.3496 81.0102V82.4742L57.9351 82.1813V80.7174L59.1061 80.1317V73.3976Z" fill="#E15355"/>
<path id="Vector_88" d="M49.8354 62.8569L49.2499 63.1498V65.98L48.0789 66.6631V70.2744L49.2499 69.5911V76.1303L49.8354 75.8374V69.2984L51.0065 68.7128V65.004L49.8354 65.6872V62.8569Z" fill="#E15355"/>
<path id="Vector_89" d="M53.8363 66.6632L53.3484 66.956V68.3226L52.0798 69.0057V79.3509L53.3484 78.6677V80.7174L53.8363 80.4245V78.4726L55.0075 77.7894V67.3466L53.8363 68.0297V66.6632Z" fill="#E15355"/>
<path id="Vector_90" d="M42.8091 66.3706L41.6379 67.0538V65.1018L41.15 65.3946V67.3466L39.979 68.0297V76.9109L41.15 76.3255V81.3028L41.6379 81.0102V76.0327L42.8091 75.3495V66.3706Z" fill="#469B4F"/>
</g>
</g>
<path id="Vector_91" opacity="0.46" d="M63.1071 110.094C62.0336 110.094 60.9602 110.192 60.0819 110.484C59.3988 108.435 56.3736 106.971 52.6653 106.971C48.469 106.971 45.1511 108.923 45.1511 111.363C45.1511 112.339 45.6389 113.217 46.5172 113.9C43.5896 114.486 41.5403 116.145 41.5403 117.999C41.5403 120.439 44.9559 122.391 49.0546 122.391C53.2508 122.391 56.5688 120.439 56.5688 117.999C56.5688 117.023 56.0808 116.145 55.2025 115.462C55.3977 115.462 55.5928 115.364 55.788 115.364C56.4711 117.414 59.4964 118.878 63.2048 118.878C67.401 118.878 70.7189 116.926 70.7189 114.486C70.6214 112.046 67.2058 110.094 63.1071 110.094Z" fill="#354594"/>
<g id="Group_50">
<g id="Group_51">
<path id="Vector_92" d="M44.0776 107.459C44.0776 109.899 47.4933 111.851 51.5919 111.851C52.6654 111.851 53.6413 111.753 54.5196 111.46C54.7147 111.46 54.9099 111.363 55.0075 111.363C55.1051 111.363 55.2026 111.363 55.2026 111.265C55.3002 111.265 55.3978 111.168 55.4954 111.168C56.081 110.972 56.5689 110.68 57.0568 110.387C57.0568 110.387 57.0568 110.387 57.1544 110.387C58.3254 109.606 59.0086 108.63 59.0086 107.459V105.507H58.2278C57.9351 105.117 57.5447 104.824 57.1544 104.531C57.1544 104.531 57.1544 104.531 57.0568 104.531C56.5689 104.238 56.081 103.945 55.4954 103.75C55.3978 103.75 55.3002 103.653 55.2026 103.653C55.105 103.653 55.0075 103.555 55.0075 103.555C54.8123 103.457 54.7147 103.458 54.5196 103.458C53.6413 103.262 52.5678 103.067 51.5919 103.067C48.6643 103.067 46.127 104.043 44.8584 105.507H44.0776V107.459Z" fill="#F0792D"/>
<path id="Vector_93" d="M54.6172 102.97V111.558C54.8124 111.558 55.0075 111.461 55.1051 111.461V103.067H54.6172V102.97Z" fill="white"/>
<path id="Vector_94" d="M55.3979 103.653V111.265C55.4955 111.265 55.5931 111.168 55.6906 111.168C56.2762 110.972 56.7641 110.68 57.252 110.387C57.252 110.387 57.2521 110.387 57.3497 110.387V104.531C57.3497 104.531 57.3496 104.531 57.252 104.531C56.7641 104.238 56.2762 103.945 55.6906 103.75C55.4955 103.75 55.3979 103.653 55.3979 103.653Z" fill="white"/>
<path id="Vector_95" d="M51.5919 110.485C55.7419 110.485 59.1061 108.518 59.1061 106.093C59.1061 103.667 55.7419 101.701 51.5919 101.701C47.4419 101.701 44.0776 103.667 44.0776 106.093C44.0776 108.518 47.4419 110.485 51.5919 110.485Z" fill="white"/>
<path id="Vector_96" d="M51.5919 110.289C55.7419 110.289 59.1061 108.323 59.1061 105.897C59.1061 103.472 55.7419 101.506 51.5919 101.506C47.4419 101.506 44.0776 103.472 44.0776 105.897C44.0776 108.323 47.4419 110.289 51.5919 110.289Z" fill="#FFB240"/>
<g id="Group_52">
<path id="Vector_97" d="M45.5415 105.897C45.5415 107.947 48.3715 109.606 51.8847 109.606C55.3978 109.606 58.2279 107.947 58.2279 105.897C58.2279 103.848 55.3978 102.189 51.8847 102.189C48.3715 102.189 45.5415 103.848 45.5415 105.897ZM47.0053 105.897C47.0053 104.336 49.1522 103.067 51.8847 103.067C54.6171 103.067 56.7641 104.336 56.7641 105.897C56.7641 107.459 54.6171 108.728 51.8847 108.728C49.1522 108.728 47.0053 107.459 47.0053 105.897Z" fill="#FFD979"/>
</g>
<path id="Vector_98" d="M49.0547 105.214C49.1523 105.116 49.3474 104.921 49.6402 104.629L49.0547 104.336L49.5426 104.043L50.1281 104.336C50.4209 104.238 50.7137 104.141 51.0064 104.141H51.104C51.7871 104.141 52.2751 104.433 52.4702 104.824C52.5678 105.019 52.5677 105.312 52.3726 105.507C52.0798 105.8 51.9823 106.093 52.0799 106.288C52.0799 106.385 52.275 106.483 52.3726 106.483C52.4702 106.483 52.6654 106.581 52.7629 106.581C53.6412 106.581 54.0316 105.8 54.1292 105.8L54.8123 105.995V106.093C54.8123 106.19 54.8123 106.385 54.5196 106.581C54.422 106.678 54.3243 106.776 54.2267 106.776L54.8123 107.069L54.3243 107.361L53.7388 106.971C53.4461 107.068 53.0557 107.166 52.6654 107.166C51.8847 107.166 51.2016 106.776 51.2016 106.385C51.104 105.995 51.2992 105.8 51.4944 105.507C51.592 105.312 51.6895 105.214 51.6895 105.117C51.6895 105.019 51.592 104.921 51.4944 104.921C51.3968 104.824 51.2992 104.824 51.104 104.824C50.5185 104.824 50.0305 105.409 49.9329 105.507L49.0547 105.214Z" fill="#FFD979"/>
</g>
<g id="Group_53">
<path id="Vector_99" d="M43.0042 105.605C43.0042 108.045 46.4198 109.997 50.5185 109.997C51.5919 109.997 52.5678 109.899 53.4461 109.606C53.6413 109.606 53.8364 109.509 53.934 109.509C54.0316 109.509 54.1291 109.508 54.1291 109.411C54.2267 109.411 54.3244 109.313 54.422 109.313C55.0075 109.118 55.4954 108.825 55.9833 108.533C55.9833 108.533 55.9833 108.533 56.0809 108.533C57.2519 107.752 57.9351 106.776 57.9351 105.605V103.653H57.1543C56.8616 103.262 56.4712 102.97 56.0809 102.677C56.0809 102.677 56.0809 102.677 55.9833 102.677C55.4954 102.384 55.0075 102.091 54.422 101.896C54.3244 101.896 54.2267 101.798 54.1291 101.798C54.0316 101.798 53.934 101.701 53.934 101.701C53.7388 101.603 53.6413 101.603 53.4461 101.603C52.5678 101.408 51.4943 101.213 50.5185 101.213C47.5908 101.213 45.0535 102.189 43.7849 103.653H43.0042V105.605Z" fill="#F0792D"/>
<path id="Vector_100" d="M53.5437 101.115V109.704C53.7389 109.704 53.9341 109.606 54.0316 109.606V101.213H53.5437V101.115Z" fill="white"/>
<path id="Vector_101" d="M54.2268 101.798V109.411C54.3244 109.411 54.422 109.313 54.5196 109.313C55.1051 109.118 55.5931 108.825 56.081 108.533C56.081 108.533 56.081 108.533 56.1786 108.533V102.677C56.1786 102.677 56.1786 102.677 56.081 102.677C55.5931 102.384 55.1051 102.091 54.5196 101.896C54.422 101.896 54.3244 101.896 54.2268 101.798Z" fill="white"/>
<path id="Vector_102" d="M50.5185 108.63C54.6684 108.63 58.0326 106.664 58.0326 104.238C58.0326 101.813 54.6684 99.8463 50.5185 99.8463C46.3685 99.8463 43.0042 101.813 43.0042 104.238C43.0042 106.664 46.3685 108.63 50.5185 108.63Z" fill="white"/>
<path id="Vector_103" d="M50.5185 108.435C54.6684 108.435 58.0326 106.469 58.0326 104.043C58.0326 101.617 54.6684 99.6511 50.5185 99.6511C46.3685 99.6511 43.0042 101.617 43.0042 104.043C43.0042 106.469 46.3685 108.435 50.5185 108.435Z" fill="#FFB240"/>
<g id="Group_54">
<path id="Vector_104" d="M44.468 104.043C44.468 106.093 47.2981 107.752 50.8112 107.752C54.3243 107.752 57.1544 106.093 57.1544 104.043C57.1544 101.993 54.3243 100.334 50.8112 100.334C47.2981 100.334 44.468 101.993 44.468 104.043ZM45.9318 104.043C45.9318 102.481 48.0788 101.213 50.8112 101.213C53.5436 101.213 55.6906 102.481 55.6906 104.043C55.6906 105.605 53.5436 106.873 50.8112 106.873C48.0788 106.873 45.9318 105.605 45.9318 104.043Z" fill="#FFD979"/>
</g>
<path id="Vector_105" d="M47.9812 103.36C48.0788 103.262 48.2741 103.067 48.5668 102.774L47.9812 102.482L48.4691 102.189L49.0548 102.482C49.3475 102.384 49.6402 102.286 49.9329 102.286H50.0306C50.7137 102.286 51.2016 102.579 51.3968 102.97C51.4943 103.165 51.4944 103.457 51.2992 103.653C51.0064 103.945 50.9089 104.238 51.0065 104.434C51.0065 104.531 51.2016 104.629 51.2992 104.629C51.3968 104.629 51.592 104.726 51.6896 104.726C52.5679 104.726 52.9582 103.946 53.0558 103.946L53.7389 104.141V104.238C53.7389 104.336 53.739 104.531 53.4462 104.726C53.3486 104.824 53.251 104.921 53.1534 104.921L53.7389 105.214L53.2509 105.507L52.6654 105.117C52.3727 105.214 51.9824 105.312 51.592 105.312C50.8113 105.312 50.1282 104.921 50.1282 104.531C50.0306 104.141 50.2257 103.945 50.4209 103.653C50.5185 103.457 50.6161 103.36 50.6161 103.262C50.6161 103.165 50.5185 103.067 50.4209 103.067C50.3233 102.969 50.2258 102.97 50.0306 102.97C49.4451 102.97 48.9571 103.555 48.8595 103.653L47.9812 103.36Z" fill="#FFD979"/>
</g>
<g id="Group_55">
<path id="Vector_106" d="M44.468 103.262C44.468 105.702 47.8836 107.654 51.9823 107.654C53.0558 107.654 54.0317 107.556 54.9099 107.264C55.1051 107.264 55.3003 107.166 55.3979 107.166C55.4955 107.166 55.593 107.166 55.593 107.069C55.6906 107.069 55.7882 106.971 55.8858 106.971C56.4713 106.776 56.9593 106.483 57.4472 106.19C57.4472 106.19 57.4472 106.19 57.5448 106.19C58.7158 105.409 59.3989 104.433 59.3989 103.262V101.31H58.6182C58.3254 100.92 57.9351 100.627 57.5448 100.334C57.5448 100.334 57.5448 100.334 57.4472 100.334C56.9593 100.041 56.4713 99.7488 55.8858 99.5536C55.7882 99.5536 55.6906 99.4559 55.593 99.4559C55.4954 99.4559 55.3979 99.3582 55.3979 99.3582C55.2027 99.2606 55.1051 99.2608 54.9099 99.2608C54.0317 99.0656 52.9582 98.8702 51.9823 98.8702C49.0547 98.8702 46.5174 99.8462 45.2488 101.31H44.468V103.262Z" fill="#F0792D"/>
<path id="Vector_107" d="M55.0076 98.7728V107.361C55.2027 107.361 55.3979 107.264 55.4955 107.264V98.8703H55.0076V98.7728Z" fill="white"/>
<path id="Vector_108" d="M55.6907 99.4559V107.069C55.7883 107.069 55.8859 106.971 55.9835 106.971C56.569 106.776 57.0569 106.483 57.5449 106.19C57.5449 106.19 57.5448 106.19 57.6424 106.19V100.334C57.6424 100.334 57.6424 100.334 57.5449 100.334C57.0569 100.041 56.569 99.7488 55.9835 99.5536C55.8859 99.5536 55.7883 99.5535 55.6907 99.4559Z" fill="white"/>
<path id="Vector_109" d="M51.9823 106.288C56.1323 106.288 59.4965 104.321 59.4965 101.896C59.4965 99.4703 56.1323 97.504 51.9823 97.504C47.8323 97.504 44.468 99.4703 44.468 101.896C44.468 104.321 47.8323 106.288 51.9823 106.288Z" fill="white"/>
<path id="Vector_110" d="M51.9823 106.093C56.1323 106.093 59.4965 104.126 59.4965 101.701C59.4965 99.2751 56.1323 97.3088 51.9823 97.3088C47.8323 97.3088 44.468 99.2751 44.468 101.701C44.468 104.126 47.8323 106.093 51.9823 106.093Z" fill="#FFB240"/>
<g id="Group_56">
<path id="Vector_111" d="M45.9319 101.701C45.9319 103.75 48.7619 105.409 52.2751 105.409C55.7882 105.409 58.6183 103.75 58.6183 101.701C58.6183 99.6511 55.7882 97.9919 52.2751 97.9919C48.7619 97.9919 45.9319 99.6511 45.9319 101.701ZM47.3957 101.701C47.3957 100.139 49.5426 98.8702 52.2751 98.8702C55.0075 98.8702 57.1544 100.139 57.1544 101.701C57.1544 103.262 55.0075 104.531 52.2751 104.531C49.5426 104.531 47.3957 103.262 47.3957 101.701Z" fill="#FFD979"/>
</g>
<path id="Vector_112" d="M49.4451 101.018C49.5427 100.92 49.7379 100.725 50.0307 100.432L49.4451 100.139L49.933 99.8462L50.5186 100.139C50.8114 100.041 51.1041 99.9439 51.3968 99.9439H51.4945C52.1776 99.9439 52.6655 100.237 52.8606 100.627C52.9582 100.822 52.9582 101.115 52.7631 101.31C52.4703 101.603 52.3728 101.896 52.4704 102.091C52.4704 102.189 52.6655 102.286 52.7631 102.286C52.8607 102.286 53.0559 102.384 53.1534 102.384C54.0317 102.384 54.4221 101.603 54.5197 101.603L55.2027 101.798V101.896C55.2027 101.993 55.2028 102.189 54.9101 102.384C54.8125 102.481 54.7148 102.579 54.6172 102.579L55.2027 102.872L54.7148 103.165L54.1293 102.774C53.8365 102.872 53.4462 102.969 53.0559 102.969C52.2752 102.969 51.5921 102.579 51.5921 102.189C51.4945 101.798 51.6896 101.603 51.8848 101.31C51.9823 101.115 52.08 101.017 52.08 100.92C52.08 100.822 51.9823 100.725 51.8848 100.725C51.7872 100.627 51.6897 100.627 51.4945 100.627C50.909 100.627 50.421 101.213 50.3234 101.31L49.4451 101.018Z" fill="#FFD979"/>
</g>
<g id="Group_57">
<path id="Vector_113" d="M42.9067 100.92C42.9067 103.36 46.3223 105.312 50.4209 105.312C51.4944 105.312 52.4703 105.214 53.3485 104.922C53.5437 104.922 53.7389 104.824 53.8365 104.824C53.9341 104.824 54.0317 104.824 54.0317 104.726C54.1293 104.726 54.2268 104.629 54.3244 104.629C54.9099 104.434 55.398 104.141 55.8859 103.848C55.8859 103.848 55.8859 103.848 55.9835 103.848C57.1545 103.067 57.8377 102.091 57.8377 100.92V98.968H57.0569C56.7642 98.5776 56.3738 98.2848 55.9835 97.992C55.9835 97.992 55.9835 97.992 55.8859 97.992C55.398 97.6992 54.9099 97.4064 54.3244 97.2112C54.2268 97.2112 54.1293 97.1138 54.0317 97.1138C53.9341 97.1138 53.8365 97.0161 53.8365 97.0161C53.6413 96.9185 53.5437 96.9184 53.3485 96.9184C52.4703 96.7232 51.3968 96.5281 50.4209 96.5281C47.4933 96.5281 44.9561 97.504 43.6875 98.968H42.9067V100.92Z" fill="#F0792D"/>
<path id="Vector_114" d="M53.3486 96.4304V105.019C53.5438 105.019 53.739 104.922 53.8366 104.922V96.5281H53.3486V96.4304Z" fill="white"/>
<path id="Vector_115" d="M54.1294 97.1138V104.726C54.227 104.726 54.3246 104.629 54.4222 104.629C55.0077 104.434 55.4956 104.141 55.9836 103.848C55.9836 103.848 55.9836 103.848 56.0811 103.848V97.992C56.0811 97.992 56.0812 97.992 55.9836 97.992C55.4956 97.6993 55.0077 97.4064 54.4222 97.2112C54.3246 97.2112 54.227 97.2114 54.1294 97.1138Z" fill="white"/>
<path id="Vector_116" d="M50.4209 103.946C54.5709 103.946 57.9352 101.979 57.9352 99.5537C57.9352 97.1282 54.5709 95.1619 50.4209 95.1619C46.2709 95.1619 42.9067 97.1282 42.9067 99.5537C42.9067 101.979 46.2709 103.946 50.4209 103.946Z" fill="white"/>
<path id="Vector_117" d="M50.4209 103.75C54.5709 103.75 57.9352 101.784 57.9352 99.3583C57.9352 96.9327 54.5709 94.9664 50.4209 94.9664C46.2709 94.9664 42.9067 96.9327 42.9067 99.3583C42.9067 101.784 46.2709 103.75 50.4209 103.75Z" fill="#FFB240"/>
<g id="Group_58">
<path id="Vector_118" d="M44.3706 99.3583C44.3706 101.408 47.2006 103.067 50.7138 103.067C54.2269 103.067 57.057 101.408 57.057 99.3583C57.057 97.3087 54.2269 95.6498 50.7138 95.6498C47.2006 95.6498 44.3706 97.3087 44.3706 99.3583ZM45.8344 99.3583C45.8344 97.7967 47.9813 96.5281 50.7138 96.5281C53.4462 96.5281 55.5932 97.7967 55.5932 99.3583C55.5932 100.92 53.4462 102.189 50.7138 102.189C47.9813 102.189 45.8344 100.92 45.8344 99.3583Z" fill="#FFD979"/>
</g>
<path id="Vector_119" d="M47.8838 98.6751C47.9814 98.5776 48.1765 98.3825 48.4693 98.0897L47.8838 97.7969L48.3717 97.504L48.9572 97.7969C49.25 97.6993 49.5428 97.6017 49.8355 97.6017H49.9331C50.6162 97.6017 51.1042 97.8945 51.2993 98.2849C51.3969 98.48 51.397 98.7728 51.2018 98.968C50.909 99.2608 50.8114 99.5536 50.909 99.7488C50.909 99.8464 51.1042 99.944 51.2018 99.944C51.2994 99.944 51.4946 100.042 51.5922 100.042C52.4704 100.042 52.8608 99.2608 52.9584 99.2608L53.6415 99.456V99.5537C53.6415 99.6513 53.6414 99.8465 53.3487 100.042C53.2511 100.139 53.1536 100.237 53.056 100.237L53.6415 100.53L53.1535 100.822L52.568 100.432C52.2753 100.53 51.8849 100.627 51.4946 100.627C50.7139 100.627 50.0308 100.237 50.0308 99.8463C49.9332 99.4559 50.1283 99.2608 50.3235 98.968C50.4211 98.7728 50.5187 98.6753 50.5187 98.5777C50.5187 98.4801 50.4211 98.3823 50.3235 98.3823C50.2259 98.2847 50.1283 98.2849 49.9331 98.2849C49.3476 98.2849 48.8597 98.8704 48.7621 98.968L47.8838 98.6751Z" fill="#FFD979"/>
</g>
<g id="Group_59">
<path id="Vector_120" d="M44.3704 98.2848C44.3704 100.725 47.7859 102.677 51.8845 102.677C52.958 102.677 53.9339 102.579 54.8122 102.286C55.0073 102.286 55.2025 102.189 55.3001 102.189C55.3977 102.189 55.4954 102.189 55.4954 102.091C55.5929 102.091 55.6905 101.994 55.788 101.994C56.3736 101.798 56.8616 101.506 57.3495 101.213C57.3495 101.213 57.3495 101.213 57.4471 101.213C58.6181 100.432 59.3013 99.456 59.3013 98.2848V96.3329H58.5205C58.2278 95.9425 57.8375 95.6497 57.4471 95.3569C57.4471 95.3569 57.4471 95.3569 57.3495 95.3569C56.8616 95.0641 56.3736 94.7713 55.788 94.5761C55.6905 94.5761 55.5929 94.4784 55.4954 94.4784C55.3978 94.4784 55.3001 94.3809 55.3001 94.3809C55.1049 94.2833 55.0073 94.2832 54.8122 94.2832C53.9339 94.088 52.8604 93.8929 51.8845 93.8929C48.9569 93.8929 46.4197 94.8689 45.1511 96.3329H44.3704V98.2848Z" fill="#F0792D"/>
<path id="Vector_121" d="M54.8123 93.7953V102.384C55.0074 102.384 55.2026 102.286 55.3002 102.286V93.893H54.8123V93.7953Z" fill="white"/>
<path id="Vector_122" d="M55.593 94.4784V102.091C55.6906 102.091 55.7882 101.994 55.8858 101.994C56.4714 101.798 56.9593 101.506 57.4472 101.213C57.4472 101.213 57.4472 101.213 57.5448 101.213V95.3569C57.5448 95.3569 57.5448 95.3569 57.4472 95.3569C56.9593 95.0641 56.4714 94.7713 55.8858 94.5761C55.7882 94.5761 55.6906 94.576 55.593 94.4784Z" fill="white"/>
<path id="Vector_123" d="M51.8845 101.31C56.0345 101.31 59.3988 99.3439 59.3988 96.9184C59.3988 94.4928 56.0345 92.5265 51.8845 92.5265C47.7345 92.5265 44.3704 94.4928 44.3704 96.9184C44.3704 99.3439 47.7345 101.31 51.8845 101.31Z" fill="white"/>
<path id="Vector_124" d="M51.8845 101.115C56.0345 101.115 59.3988 99.1487 59.3988 96.7232C59.3988 94.2976 56.0345 92.3313 51.8845 92.3313C47.7345 92.3313 44.3704 94.2976 44.3704 96.7232C44.3704 99.1487 47.7345 101.115 51.8845 101.115Z" fill="#FFB240"/>
<g id="Group_60">
<path id="Vector_125" d="M45.8342 96.7231C45.8342 98.7727 48.6643 100.432 52.1774 100.432C55.6906 100.432 58.5206 98.7727 58.5206 96.7231C58.5206 94.6736 55.6906 93.0144 52.1774 93.0144C48.6643 93.0144 45.8342 94.6736 45.8342 96.7231ZM47.2005 96.7231C47.2005 95.1616 49.3474 93.8929 52.0798 93.8929C54.8123 93.8929 56.9592 95.1616 56.9592 96.7231C56.9592 98.2847 54.8123 99.5536 52.0798 99.5536C49.445 99.5536 47.2005 98.2847 47.2005 96.7231Z" fill="#FFD979"/>
</g>
<path id="Vector_126" d="M49.3474 96.04C49.445 95.9424 49.6402 95.7471 49.9329 95.4543L49.3474 95.1617L49.8353 94.8689L50.4208 95.1617C50.7136 95.0641 51.0064 94.9664 51.2992 94.9664H51.3967C52.0798 94.9664 52.5678 95.2593 52.763 95.6497C52.8606 95.8449 52.8606 96.1377 52.6654 96.3329C52.3726 96.6256 52.275 96.9185 52.3726 97.1137C52.3726 97.2113 52.5678 97.3088 52.6654 97.3088C52.763 97.3088 52.9582 97.4063 53.0558 97.4063C53.9341 97.4063 54.3244 96.6257 54.422 96.6257L55.1051 96.8208V96.9183C55.1051 97.0159 55.105 97.2111 54.8123 97.4063C54.7147 97.5039 54.6172 97.6017 54.5196 97.6017L55.1051 97.8943L54.6172 98.1871L54.0317 97.7968C53.7389 97.8944 53.3486 97.992 52.9582 97.992C52.1775 97.992 51.4944 97.6015 51.4944 97.2111C51.3968 96.8207 51.5919 96.6256 51.7871 96.3329C51.8847 96.1377 51.9823 96.0399 51.9823 95.9423C51.9823 95.8447 51.8847 95.7472 51.7871 95.7472C51.6895 95.6496 51.5919 95.6497 51.3967 95.6497C50.8112 95.6497 50.3233 96.2353 50.2257 96.3329L49.3474 96.04Z" fill="#FFD979"/>
</g>
<g id="Group_61">
<path id="Vector_127" d="M43.2971 96.4303C43.2971 98.8703 46.7126 100.822 50.8113 100.822C51.8848 100.822 52.8606 100.725 53.7389 100.432C53.9341 100.432 54.1293 100.334 54.2269 100.334C54.3245 100.334 54.4221 100.334 54.4221 100.237C54.5197 100.237 54.6172 100.139 54.7148 100.139C55.3003 99.9439 55.7882 99.651 56.2762 99.3582C56.2762 99.3582 56.2763 99.3582 56.3739 99.3582C57.5449 98.5775 58.2279 97.6015 58.2279 96.4303V94.4784H57.4473C57.1545 94.088 56.7642 93.7952 56.3739 93.5024C56.3739 93.5024 56.3738 93.5024 56.2762 93.5024C55.7882 93.2096 55.3003 92.917 54.7148 92.7218C54.6172 92.7218 54.5197 92.6241 54.4221 92.6241C54.3245 92.6241 54.2269 92.5264 54.2269 92.5264C54.0317 92.4288 53.9341 92.429 53.7389 92.429C52.8606 92.2338 51.7872 92.0385 50.8113 92.0385C47.8837 92.0385 45.3464 93.0144 44.0777 94.4784H43.2971V96.4303Z" fill="#F0792D"/>
<path id="Vector_128" d="M53.739 91.941V100.53C53.9342 100.53 54.1294 100.432 54.227 100.432V92.0385H53.739V91.941Z" fill="white"/>
<path id="Vector_129" d="M54.5198 92.6241V100.237C54.6174 100.237 54.7149 100.139 54.8125 100.139C55.398 99.9439 55.886 99.6511 56.374 99.3583C56.374 99.3583 56.3739 99.3583 56.4715 99.3583V93.5024C56.4715 93.5024 56.4715 93.5024 56.374 93.5024C55.886 93.2096 55.398 92.917 54.8125 92.7218C54.7149 92.7218 54.6174 92.7217 54.5198 92.6241Z" fill="white"/>
<path id="Vector_130" d="M50.8113 99.456C54.9613 99.456 58.3256 97.4897 58.3256 95.0641C58.3256 92.6386 54.9613 90.6722 50.8113 90.6722C46.6613 90.6722 43.2971 92.6386 43.2971 95.0641C43.2971 97.4897 46.6613 99.456 50.8113 99.456Z" fill="white"/>
<path id="Vector_131" d="M50.8113 99.2608C54.9613 99.2608 58.3256 97.2945 58.3256 94.8689C58.3256 92.4434 54.9613 90.4771 50.8113 90.4771C46.6613 90.4771 43.2971 92.4434 43.2971 94.8689C43.2971 97.2945 46.6613 99.2608 50.8113 99.2608Z" fill="#FFB240"/>
<g id="Group_62">
<path id="Vector_132" d="M44.761 94.8689C44.761 96.9184 47.591 98.5776 51.1042 98.5776C54.6173 98.5776 57.4474 96.9184 57.4474 94.8689C57.4474 92.8194 54.6173 91.1602 51.1042 91.1602C47.591 91.1602 44.761 92.8194 44.761 94.8689ZM46.1272 94.8689C46.1272 93.3073 48.2742 92.0384 51.0066 92.0384C53.7391 92.0384 55.886 93.3073 55.886 94.8689C55.886 96.4305 53.7391 97.6991 51.0066 97.6991C48.3717 97.6991 46.1272 96.4305 46.1272 94.8689Z" fill="#FFD979"/>
</g>
</g>
<g id="Group_63">
<path id="Vector_133" d="M57.74 113.022C57.74 115.462 61.1556 117.414 65.2543 117.414C66.3278 117.414 67.3036 117.316 68.1819 117.023C68.3771 117.023 68.5723 116.926 68.6699 116.926C68.7674 116.926 68.865 116.926 68.865 116.828C68.9626 116.828 69.0602 116.731 69.1578 116.731C69.7433 116.535 70.2312 116.243 70.7192 115.95C70.7192 115.95 70.7191 115.95 70.8167 115.95C71.9878 115.169 72.6709 114.193 72.6709 113.022V111.07H71.8902C71.5974 110.68 71.2071 110.387 70.8167 110.094C70.8167 110.094 70.8168 110.094 70.7192 110.094C70.2312 109.801 69.7433 109.509 69.1578 109.313C69.0602 109.313 68.9626 109.216 68.865 109.216C68.7674 109.216 68.6699 109.118 68.6699 109.118C68.4747 109.02 68.3771 109.021 68.1819 109.021C67.3036 108.825 66.2302 108.63 65.2543 108.63C62.3267 108.63 59.7894 109.606 58.5207 111.07H57.74V113.022Z" fill="#F0792D"/>
<path id="Vector_134" d="M68.2795 108.435V117.023C68.4747 117.023 68.6699 116.926 68.7675 116.926V108.533H68.2795V108.435Z" fill="white"/>
<path id="Vector_135" d="M68.9626 109.216V116.828C69.0602 116.828 69.1579 116.731 69.2555 116.731C69.841 116.535 70.3289 116.243 70.8168 115.95C70.8168 115.95 70.8168 115.95 70.9144 115.95V110.094C70.9144 110.094 70.9144 110.094 70.8168 110.094C70.3289 109.801 69.841 109.509 69.2555 109.313C69.1579 109.313 69.0602 109.216 68.9626 109.216Z" fill="white"/>
<path id="Vector_136" d="M65.2543 116.048C69.4043 116.048 72.7685 114.081 72.7685 111.656C72.7685 109.23 69.4043 107.264 65.2543 107.264C61.1043 107.264 57.74 109.23 57.74 111.656C57.74 114.081 61.1043 116.048 65.2543 116.048Z" fill="white"/>
<path id="Vector_137" d="M65.2543 115.852C69.4043 115.852 72.7685 113.886 72.7685 111.46C72.7685 109.035 69.4043 107.069 65.2543 107.069C61.1043 107.069 57.74 109.035 57.74 111.46C57.74 113.886 61.1043 115.852 65.2543 115.852Z" fill="#FFB240"/>
<g id="Group_64">
<path id="Vector_138" d="M59.2039 111.46C59.2039 113.51 62.0339 115.169 65.547 115.169C69.0602 115.169 71.8902 113.51 71.8902 111.46C71.8902 109.411 69.0602 107.752 65.547 107.752C62.0339 107.752 59.2039 109.411 59.2039 111.46ZM60.6677 111.46C60.6677 109.899 62.8146 108.63 65.547 108.63C68.2795 108.63 70.4264 109.899 70.4264 111.46C70.4264 113.022 68.2795 114.291 65.547 114.291C62.8146 114.291 60.6677 113.022 60.6677 111.46Z" fill="#FFD979"/>
</g>
<path id="Vector_139" d="M62.717 110.777C62.8146 110.68 63.0098 110.484 63.3025 110.192L62.717 109.899L63.205 109.606L63.7905 109.899C64.0832 109.801 64.376 109.704 64.6688 109.704H64.7664C65.4495 109.704 65.9374 109.996 66.1326 110.387C66.2302 110.582 66.2301 110.875 66.0349 111.07C65.7422 111.363 65.6446 111.656 65.7422 111.851C65.7422 111.948 65.9373 112.046 66.0349 112.046C66.1325 112.046 66.3277 112.144 66.4253 112.144C67.3036 112.144 67.694 111.363 67.7915 111.363L68.4746 111.558V111.656C68.4746 111.753 68.4747 111.948 68.1819 112.144C68.0843 112.241 67.9867 112.339 67.8891 112.339L68.4746 112.632L67.9867 112.924L67.4012 112.534C67.1084 112.631 66.7181 112.729 66.3277 112.729C65.547 112.729 64.8639 112.339 64.8639 111.948C64.7663 111.558 64.9616 111.363 65.1567 111.07C65.2543 110.875 65.3519 110.777 65.3519 110.68C65.3519 110.582 65.2543 110.484 65.1567 110.484C65.0591 110.387 64.9615 110.387 64.7664 110.387C64.1808 110.387 63.6928 110.972 63.5952 111.07L62.717 110.777Z" fill="#FFD979"/>
</g>
<g id="Group_65">
<path id="Vector_140" d="M56.6665 111.168C56.6665 113.608 60.0821 115.56 64.1808 115.56C65.2543 115.56 66.2301 115.462 67.1084 115.169C67.3036 115.169 67.4988 115.072 67.5964 115.072C67.694 115.072 67.7915 115.071 67.7915 114.974C67.8891 114.974 67.9867 114.876 68.0843 114.876C68.6698 114.681 69.1577 114.388 69.6457 114.096C69.6457 114.096 69.6457 114.096 69.7432 114.096C70.9143 113.315 71.5974 112.339 71.5974 111.168V109.216H70.8167C70.5239 108.825 70.1336 108.533 69.7432 108.24C69.7432 108.24 69.7433 108.24 69.6457 108.24C69.1577 107.947 68.6698 107.654 68.0843 107.459C67.9867 107.459 67.8891 107.361 67.7915 107.361C67.6939 107.361 67.5964 107.264 67.5964 107.264C67.4012 107.166 67.3036 107.166 67.1084 107.166C66.2301 106.971 65.1567 106.776 64.1808 106.776C61.2532 106.776 58.7159 107.752 57.4473 109.216H56.6665V111.168Z" fill="#F0792D"/>
<path id="Vector_141" d="M67.1084 106.581V115.169C67.3036 115.169 67.4987 115.071 67.5963 115.071V106.678H67.1084V106.581Z" fill="white"/>
<path id="Vector_142" d="M67.8892 107.361V114.974C67.9867 114.974 68.0844 114.876 68.182 114.876C68.7675 114.681 69.2554 114.388 69.7433 114.096C69.7433 114.096 69.7433 114.096 69.8409 114.096V108.24C69.8409 108.24 69.8409 108.24 69.7433 108.24C69.2554 107.947 68.7675 107.654 68.182 107.459C68.0844 107.459 67.9867 107.361 67.8892 107.361Z" fill="white"/>
<path id="Vector_143" d="M64.1808 114.193C68.3308 114.193 71.695 112.227 71.695 109.801C71.695 107.376 68.3308 105.41 64.1808 105.41C60.0308 105.41 56.6665 107.376 56.6665 109.801C56.6665 112.227 60.0308 114.193 64.1808 114.193Z" fill="white"/>
<path id="Vector_144" d="M64.1808 113.998C68.3308 113.998 71.695 112.032 71.695 109.606C71.695 107.18 68.3308 105.214 64.1808 105.214C60.0308 105.214 56.6665 107.18 56.6665 109.606C56.6665 112.032 60.0308 113.998 64.1808 113.998Z" fill="#FFB240"/>
<g id="Group_66">
<path id="Vector_145" d="M58.1304 109.606C58.1304 111.656 60.9604 113.315 64.4736 113.315C67.9867 113.315 70.8167 111.656 70.8167 109.606C70.8167 107.556 67.9867 105.897 64.4736 105.897C60.9604 105.897 58.1304 107.556 58.1304 109.606ZM59.5942 109.606C59.5942 108.044 61.7411 106.776 64.4736 106.776C67.206 106.776 69.3529 108.044 69.3529 109.606C69.3529 111.168 67.206 112.436 64.4736 112.436C61.7411 112.436 59.5942 111.168 59.5942 109.606Z" fill="#FFD979"/>
</g>
</g>
<g id="Group_67">
<path id="Vector_146" d="M42.4187 116.633C42.4187 119.073 45.8342 121.025 49.9329 121.025C51.0063 121.025 51.9822 120.927 52.8605 120.635C53.0557 120.635 53.2509 120.537 53.3484 120.537C53.446 120.537 53.5437 120.537 53.5437 120.439C53.6413 120.439 53.7388 120.342 53.8364 120.342C54.4219 120.147 54.9099 119.854 55.3979 119.561C55.3979 119.561 55.3979 119.561 55.4954 119.561C56.6665 118.78 57.3496 117.804 57.3496 116.633V114.681H56.5689C56.2761 114.291 55.8858 113.998 55.4954 113.705C55.4954 113.705 55.4955 113.705 55.3979 113.705C54.9099 113.413 54.4219 113.12 53.8364 112.924C53.7388 112.924 53.6413 112.827 53.5437 112.827C53.4461 112.827 53.3484 112.729 53.3484 112.729C53.1533 112.632 53.0557 112.632 52.8605 112.632C51.9822 112.436 50.9088 112.241 49.9329 112.241C47.0053 112.241 44.4681 113.217 43.1994 114.681H42.4187V116.633Z" fill="#F0792D"/>
<path id="Vector_147" d="M52.9583 112.046V120.635C53.1534 120.635 53.3486 120.537 53.4462 120.537V112.144H52.9583V112.046Z" fill="white"/>
<path id="Vector_148" d="M53.6414 112.827V120.439C53.7389 120.439 53.8366 120.342 53.9342 120.342C54.5197 120.147 55.0076 119.854 55.4955 119.561C55.4955 119.561 55.4955 119.561 55.5931 119.561V113.705C55.5931 113.705 55.5931 113.705 55.4955 113.705C55.0076 113.413 54.5197 113.12 53.9342 112.924C53.8366 112.924 53.7389 112.827 53.6414 112.827Z" fill="white"/>
<path id="Vector_149" d="M49.9329 119.659C54.0829 119.659 57.4472 117.692 57.4472 115.267C57.4472 112.841 54.0829 110.875 49.9329 110.875C45.7829 110.875 42.4187 112.841 42.4187 115.267C42.4187 117.692 45.7829 119.659 49.9329 119.659Z" fill="white"/>
<path id="Vector_150" d="M49.9329 119.463C54.0829 119.463 57.4472 117.497 57.4472 115.072C57.4472 112.646 54.0829 110.68 49.9329 110.68C45.7829 110.68 42.4187 112.646 42.4187 115.072C42.4187 117.497 45.7829 119.463 49.9329 119.463Z" fill="#FFB240"/>
<g id="Group_68">
<path id="Vector_151" d="M43.8826 115.072C43.8826 117.121 46.7126 118.78 50.2258 118.78C53.7389 118.78 56.5689 117.121 56.5689 115.072C56.5689 113.022 53.7389 111.363 50.2258 111.363C46.7126 111.363 43.8826 113.022 43.8826 115.072ZM45.3464 115.072C45.3464 113.51 47.4933 112.241 50.2258 112.241C52.9582 112.241 55.1051 113.51 55.1051 115.072C55.1051 116.633 52.9582 117.902 50.2258 117.902C47.4933 117.902 45.3464 116.633 45.3464 115.072Z" fill="#FFD979"/>
</g>
</g>
</g>
<g id="Group_69">
<path id="Vector_152" d="M105.07 20.7923V27.4289L102.533 28.8929L78.9165 42.459V26.8435L97.1653 16.4004C98.2388 15.8148 99.5074 15.8149 100.483 16.3029C100.776 16.4005 103.021 17.5717 103.021 17.5717C104.192 18.1573 105.07 19.3283 105.07 20.7923Z" fill="#354594"/>
</g>
<g id="Group_70">
<g id="Group_71">
<path id="Vector_153" d="M115.024 1.17549L114.145 0.6875L82.2344 19.0358L82.3319 43.0446L83.2102 43.5326L115.121 25.0868L115.024 1.17549Z" fill="#A6CBF3"/>
</g>
<g id="Group_72">
<path id="Vector_154" d="M114.438 2.2489L83.7957 19.719V42.5566L114.536 24.8917L114.438 2.2489Z" fill="#F6F6F4"/>
</g>
<g id="Group_73">
<path id="Vector_155" d="M112.917 10.1425L85.5356 25.9564L85.6821 26.21L113.064 10.3961L112.917 10.1425Z" fill="#0F1F64"/>
</g>
<g id="Group_74">
<path id="Vector_156" d="M104.777 10.9352V14.0583L112.974 9.37355V6.25049L104.777 10.9352Z" fill="#469B4F"/>
</g>
<g id="Group_75">
<path id="Vector_157" d="M85.4546 24.6963L91.4074 21.2804V20.0118L85.4546 23.4277V24.6963Z" fill="#A6CBF3"/>
</g>
<g id="Group_76">
<path id="Vector_158" d="M85.4546 30.8449L91.4074 27.429V26.0627L85.4546 29.5761V30.8449Z" fill="#A6CBF3"/>
</g>
<g id="Group_77">
<path id="Vector_159" d="M85.4546 36.7008L91.4074 33.2849V32.0161L85.4546 35.432V36.7008Z" fill="#A6CBF3"/>
</g>
<g id="Group_78">
<path id="Vector_160" d="M112.844 16.0934L85.459 31.901L85.6052 32.1544L112.99 16.3468L112.844 16.0934Z" fill="#0F1F64"/>
</g>
<g id="Group_79">
<path id="Vector_161" d="M104.777 16.9862V20.1093L112.974 15.4246V12.3015L104.777 16.9862Z" fill="#E15355"/>
</g>
<g id="Group_80">
<path id="Vector_162" d="M112.856 22.1412L85.4714 37.9489L85.6178 38.2025L113.002 22.3949L112.856 22.1412Z" fill="#0F1F64"/>
</g>
<g id="Group_81">
<path id="Vector_163" d="M104.777 22.9397V26.0627L112.974 21.4757V18.3524L104.777 22.9397Z" fill="#469B4F"/>
</g>
</g>
<path id="Vector_164" opacity="0.25" d="M91.4076 129.516C95.6653 129.516 99.117 127.943 99.117 126.002C99.117 124.062 95.6653 122.489 91.4076 122.489C87.1498 122.489 83.6982 124.062 83.6982 126.002C83.6982 127.943 87.1498 129.516 91.4076 129.516Z" fill="#354594"/>
<g id="Group_82">
<path id="Vector_165" d="M82.7224 76.2278C82.7224 76.2278 82.8199 75.447 82.4296 75.0567C82.0392 74.6663 81.7465 75.3495 81.7465 75.3495C80.1851 74.4711 79.9899 75.0567 79.9899 75.0567C79.2092 75.935 79.5995 76.3255 79.5995 76.3255C79.8923 76.9111 81.8441 77.5943 81.8441 77.5943L82.7224 76.2278Z" fill="#E2796F"/>
<path id="Vector_166" d="M98.629 85.3043C98.3362 86.1827 97.458 86.7684 95.0183 85.89C92.5786 85.0116 88.4799 82.8644 88.4799 82.8644L81.844 77.6917L82.9174 76.0326L90.0414 80.4245L96.3845 82.4741C96.287 82.3765 99.3121 83.45 98.629 85.3043Z" fill="#172A98"/>
<path id="Vector_167" d="M92.7738 124.246C92.9689 123.66 95.7014 123.465 95.7014 123.465L98.3363 124.636C98.2387 126.1 97.946 126.393 97.3604 126.393C93.2618 125.905 92.7738 125.124 92.7738 125.124C92.7738 125.124 92.5786 124.831 92.7738 124.246Z" fill="#172A98"/>
<path id="Vector_168" d="M92.4812 102.579L92.9691 105.897L93.7498 111.948L94.0426 114.388L95.4088 124.05C95.4088 124.05 95.9943 124.734 98.5316 124.441L97.9461 113.607L98.1412 103.848L98.2388 100.725V100.627L98.0436 100.725L95.604 101.505L92.4812 102.579Z" fill="#0E1B62"/>
<path id="Vector_169" d="M86.6259 127.173C86.8211 126.588 89.5535 126.393 89.5535 126.393L92.1883 127.564C92.0907 129.028 91.798 129.321 91.2125 129.321C87.1138 128.833 86.6259 128.052 86.6259 128.052C86.6259 128.052 86.5283 127.759 86.6259 127.173Z" fill="#172A98"/>
<path id="Vector_170" d="M88.7727 115.071L89.2606 127.369C89.2606 127.369 89.8461 128.052 92.3834 127.759L92.969 117.219L93.8472 112.046L95.0183 105.702L95.799 101.603L95.8966 101.018L89.3582 104.043L89.2606 105.312L88.7727 115.071Z" fill="#0E1B62"/>
<path id="Vector_171" d="M89.1631 105.214C89.8462 105.507 91.2124 105.897 92.969 105.897C93.5545 105.897 94.2377 105.8 94.9208 105.605C95.9942 105.312 97.0676 104.824 98.1411 103.848L98.2386 100.725H98.0435L95.6038 101.506L95.7014 100.92L89.1631 103.945V105.214Z" fill="#050D3F"/>
<path id="Vector_172" d="M88.7727 88.6225V104.824C88.7727 104.824 96.287 106.873 98.8243 101.017L98.4339 95.8448L98.8243 84.9139C98.8243 84.9139 98.7266 84.133 98.0435 83.5474C97.7507 83.2547 97.3604 83.0596 96.8725 82.962C96.4822 82.8644 95.9942 82.962 95.6038 83.1571L90.139 86.0851C89.7486 86.2803 89.4558 86.5731 89.2606 86.8659C88.9679 87.4515 88.7727 88.0369 88.7727 88.6225Z" fill="#0D1D63"/>
<path id="Vector_173" d="M93.7498 112.046L94.7256 106.873V117.999L93.7498 112.046Z" fill="#050D3F"/>
<path id="Vector_174" d="M76.4768 80.4246C76.4768 80.4246 76.5743 79.6438 76.184 79.2534C75.7936 78.863 75.5009 79.5463 75.5009 79.5463C73.9395 78.6679 73.7443 79.2534 73.7443 79.2534C72.9636 80.1318 73.3539 80.5223 73.3539 80.5223C73.6467 81.1078 75.5985 81.7908 75.5985 81.7908L76.4768 80.4246Z" fill="#E2796F"/>
<path id="Vector_175" d="M92.3834 89.4033C92.0906 90.2817 91.2124 90.8674 88.7727 89.989C86.333 89.1106 82.2344 86.9634 82.2344 86.9634L75.5984 81.7907L76.6718 80.1316L83.7958 84.5235L90.1389 86.5731C90.0413 86.5731 93.0665 87.549 92.3834 89.4033Z" fill="#172A98"/>
<path id="Vector_176" d="M95.4087 83.7427C96.287 85.2066 95.3111 85.9874 91.9932 85.2066L93.457 84.426L95.4087 83.7427Z" fill="#F6F6F6"/>
<path id="Vector_177" d="M89.9438 77.3988C89.9438 77.3988 89.3584 84.3284 91.9933 83.6452C94.6281 82.962 95.4088 79.8387 95.4088 79.8387L93.5546 77.3988H89.9438Z" fill="#E2796F"/>
<path id="Vector_178" d="M92.6764 82.0835L92.3835 84.914C92.3835 84.914 94.4329 85.4994 95.3112 84.5235V81.9861H92.6764V82.0835Z" fill="#E2796F"/>
<path id="Vector_179" d="M91.5053 80.0341C90.3343 79.7413 90.8221 78.6676 90.8221 78.6676C90.8221 78.6676 89.4559 78.0821 89.2608 76.8134C89.1632 75.1542 90.9197 73.9829 90.9197 73.9829C90.9197 73.9829 91.5053 74.6663 91.6029 75.1543C92.6763 75.1543 94.8232 75.4469 95.6039 76.9108C96.6774 78.9604 95.2136 82.6692 95.2136 82.6692H93.6522L92.2859 80.5221L91.5053 80.0341Z" fill="#1A2759"/>
<path id="Vector_180" d="M90.9197 80.4245C90.9197 81.01 91.4076 81.4004 91.8956 81.4004C92.4811 81.4004 92.8714 80.9124 92.8714 80.4245C92.8714 79.8389 92.3835 79.4485 91.8956 79.4485C91.4076 79.4485 90.9197 79.8389 90.9197 80.4245Z" fill="#E2796F"/>
</g>
</g>
</svg>
